<?xml version="1.0" encoding="UTF-8"?>
<svg version="1.1" xmlns="http://www.w3.org/2000/svg" width="512" height="512">
<path d="M0 0 C0.89976562 0.44085938 1.79953125 0.88171875 2.7265625 1.3359375 C9.93704069 5.01226582 15.96164248 9.63461973 22 15 C22.71027344 15.62648438 23.42054688 16.25296875 24.15234375 16.8984375 C41.07828125 32.78535706 50.73510711 56.01410656 52 79 C52.06142909 81.62703721 52.10965961 84.25157083 52.140625 86.87890625 C52.15034332 87.58173737 52.16006165 88.28456848 52.17007446 89.00869751 C52.24985912 94.92520989 52.24985912 94.92520989 52.25048828 97.77124023 C52.2124985 109.06943015 52.2124985 109.06943015 56.83496094 119.21850586 C60.63538943 125.02984842 59.46729454 133.36306299 59 140 C57.17138404 148.6189542 51.8440074 155.77835063 44.5390625 160.63671875 C39.37490498 163.4094741 34.83654132 164.6757477 29 165 C28.95875 166.175625 28.9175 167.35125 28.875 168.5625 C27.07695479 184.04026755 17.08137746 200.41022556 5 210 C4.34 210 3.68 210 3 210 C3 217.26 3 224.52 3 232 C4.98 232.33 6.96 232.66 9 233 C10.46070027 233.46558582 11.90710165 233.97925518 13.33251953 234.54370117 C14.54090233 235.01712952 14.54090233 235.01712952 15.7736969 235.50012207 C17.06520912 236.01633118 17.06520912 236.01633118 18.3828125 236.54296875 C19.29840439 236.903302 20.21399628 237.26363525 21.15733337 237.6348877 C24.14879049 238.81351736 27.13693606 240.00029715 30.125 241.1875 C33.24203463 242.4198618 36.35972291 243.65055867 39.47749329 244.88105774 C41.58379483 245.71246814 43.68982191 246.5445742 45.795578 247.37736511 C52.3790946 249.97809183 58.97649594 252.53867157 65.58984375 255.0625 C67.21405995 255.68457336 68.83824695 256.30672296 70.46240234 256.92895508 C72.72588766 257.79583628 74.99012161 258.66021399 77.25811768 259.51522827 C98.66655561 267.59083565 116.34233908 278.00100285 126.8125 299.375 C131.36772568 310.43554933 132.46794136 321.259565 132.43359375 333.12890625 C132.43816887 334.53564197 132.44347833 335.94237547 132.44947815 337.34910583 C132.45832514 340.26774306 132.45607644 343.18610527 132.44604492 346.10473633 C132.43445267 349.84062233 132.45496307 353.57557738 132.48396206 357.31134129 C132.50229477 360.20330273 132.50203951 363.09503844 132.49632454 365.98704338 C132.49617156 367.36533877 132.50219649 368.74364967 132.51461601 370.12188911 C132.52949857 372.04027226 132.51623306 373.95881137 132.50170898 375.87719727 C132.50145973 377.51048729 132.50145973 377.51048729 132.50120544 379.17677307 C131.88242978 382.66225818 130.74271079 383.8348998 128 386 C126 386.56640625 126 386.56640625 124 386.5625 C123.34 386.58441406 122.68 386.60632813 122 386.62890625 C118.86652939 385.64357663 117.80084776 383.67861707 116 381 C115.50120544 378.1569519 115.50120544 378.1569519 115.50170898 375.00732422 C115.49167343 373.82194061 115.48163788 372.63655701 115.47129822 371.41525269 C115.47948074 370.14126617 115.48766327 368.86727966 115.49609375 367.5546875 C115.48871693 366.22053699 115.47916368 364.88639692 115.46754456 363.55227661 C115.44087542 360.0416244 115.43524661 356.53131138 115.43664551 353.02056885 C115.43887431 347.42420335 115.42429828 341.82826266 115.38105965 336.23205948 C115.37135426 334.29420396 115.38029772 332.35628326 115.38975525 330.41842651 C115.29896173 314.53347993 110.61516291 302.65232644 100.18359375 290.73828125 C89.24751861 280.60277001 73.63322403 276.30566453 60 271.125 C57.7275203 270.25089453 55.45538176 269.37590158 53.18359375 268.5 C51.01853184 267.66848231 48.8531776 266.8377253 46.6875 266.0078125 C45.67397461 265.61933136 44.66044922 265.23085022 43.61621094 264.83059692 C42.67422852 264.47287201 41.73224609 264.11514709 40.76171875 263.74658203 C39.93631592 263.43238312 39.11091309 263.1181842 38.26049805 262.79446411 C36.18737861 262.06585521 34.14026263 261.49136569 32 261 C31.76442383 261.79204834 31.52884766 262.58409668 31.28613281 263.40014648 C29.65189364 267.97434097 27.56906287 272.24520017 25.421875 276.59765625 C24.97281799 277.50954208 24.52376099 278.42142792 24.06109619 279.36094666 C23.11189702 281.28254961 22.16032944 283.20298427 21.20654297 285.12231445 C19.75621423 288.04995591 18.32538033 290.98662797 16.89453125 293.92382812 C15.96734044 295.79486329 15.03899301 297.66532584 14.109375 299.53515625 C13.68726746 300.40922623 13.26515991 301.2832962 12.83026123 302.18385315 C9.9867031 307.83021558 7.06658303 312.41897333 0.91015625 314.8125 C-4.27969497 315.33916566 -7.34135521 314.32932239 -12 312 C-12.66 312 -13.32 312 -14 312 C-16.60911624 314.7582086 -17.98279088 316.49172887 -18.02678776 320.34777832 C-17.26416486 327.24685072 -16.24871583 334.06966444 -15.05053711 340.90625 C-14.75771095 342.6085376 -14.75771095 342.6085376 -14.45896912 344.34521484 C-14.03792666 346.79043627 -13.61499694 349.23533335 -13.19035149 351.67993164 C-12.51762426 355.55600105 -11.85114587 359.43309831 -11.18641663 363.31054688 C-9.29697737 374.32844295 -7.39793604 385.34466884 -5.48999023 396.359375 C-4.32005693 403.1139272 -3.15984902 409.87010125 -2.00470161 416.62719727 C-1.56437837 419.19208395 -1.12064084 421.75638702 -0.6733532 424.32006836 C-0.04721482 427.90991146 0.56754896 431.5015385 1.17993164 435.09375 C1.36537537 436.14030762 1.55081909 437.18686523 1.74188232 438.26513672 C4.54108883 454.91050125 4.54108883 454.91050125 1.35546875 461.296875 C0.57816406 462.18890625 -0.19914063 463.0809375 -1 464 C-1.648479 464.74733398 -1.648479 464.74733398 -2.31005859 465.50976562 C-3.73796039 467.12186424 -5.20459481 468.68844136 -6.6875 470.25 C-11.87413979 475.76473141 -16.93218334 481.3690926 -22 487 C17.105 487.495 17.105 487.495 57 488 C56.96519531 477.06230469 56.93039062 466.12460937 56.89453125 454.85546875 C56.87920961 447.94205518 56.86464434 441.02865386 56.85351562 434.11523438 C56.83569509 423.13268851 56.81471366 412.15021155 56.77368164 401.16772461 C56.74381618 393.17024079 56.72443379 385.17281271 56.71773452 377.17527467 C56.7138174 372.93910308 56.70458672 368.703091 56.68280983 364.46697044 C56.66248966 360.48203486 56.65615707 356.49732492 56.66067696 352.51234245 C56.65984974 351.04777552 56.6538574 349.58320126 56.64238358 348.11867905 C56.62751118 346.12293162 56.63282168 344.12706389 56.63923645 342.13127136 C56.63647107 341.01313647 56.63370569 339.89500158 56.63085651 338.74298382 C57 336 57 336 58.31161022 334.17538929 C61.15679636 332.19468474 63.58385393 332.05889907 67 332 C70.42741629 334.08625339 71.72481037 335.1744311 73 339 C73.09146478 341.00410767 73.12194181 343.01118672 73.12025452 345.01737976 C73.12231651 346.90412918 73.12231651 346.90412918 73.12442017 348.82899475 C73.12088102 350.22543359 73.11724621 351.62187218 73.11352539 353.01831055 C73.11324336 354.48671466 73.11340156 355.95511892 73.1139679 357.42352295 C73.11425525 361.4128998 73.10836843 365.4022467 73.10139394 369.39161658 C73.09515019 373.55964491 73.09455579 377.72767389 73.09336853 381.89570618 C73.09025824 389.78983202 73.0820489 397.68394404 73.07201904 405.57806379 C73.06084856 414.56465939 73.05534509 423.55125564 73.05032361 432.53785646 C73.03986605 451.02524707 73.02152429 469.51261873 73 488 C93.79 487.505 93.79 487.505 115 487 C115.02578125 481.48796875 115.0515625 475.9759375 115.078125 470.296875 C115.10329009 466.80594295 115.12962021 463.31509784 115.16015625 459.82421875 C115.20851865 454.2827114 115.25255267 448.74140524 115.27099609 443.19970703 C115.28613474 438.73205916 115.32053011 434.26493738 115.36830902 429.7975235 C115.38315175 428.09273093 115.39104267 426.38786326 115.39188385 424.68300629 C115.39424667 422.2955866 115.42126831 419.90962896 115.45410156 417.52246094 C115.4490712 416.81683517 115.44404083 416.11120941 115.43885803 415.38420105 C115.51013764 412.03669087 115.78773147 410.2766233 117.8505249 407.58843994 C120.65496825 405.51598521 122.5186682 405.07104759 126 405 C130.56521739 407.13043478 130.56521739 407.13043478 132 410 C132.11362238 412.45959164 132.16779954 414.89154347 132.17700195 417.35205078 C132.18357315 418.11002457 132.19014435 418.86799835 132.19691467 419.64894104 C132.21666779 422.16439918 132.22831741 424.67979743 132.23828125 427.1953125 C132.24235678 428.05506557 132.2464323 428.91481865 132.25063133 429.80062485 C132.27150503 434.35503653 132.28579862 438.909418 132.29516602 443.46386719 C132.30620674 448.15799671 132.34057561 452.85164909 132.38033772 457.54561043 C132.40655151 461.16257579 132.41486228 464.77942857 132.41844749 468.39648056 C132.42330462 470.12595704 132.43489362 471.85542879 132.45348549 473.58481216 C132.47796916 476.01411284 132.47689512 478.44219442 132.4699707 480.87158203 C132.48918579 481.9317881 132.48918579 481.9317881 132.50878906 483.01341248 C132.44193795 489.49098918 130.60468571 493.96657412 126.44693947 498.80869961 C118.79694243 505.33606909 108.10479562 503.83016354 98.67260742 503.76049805 C96.59896934 503.76699649 94.52533796 503.77606124 92.45172119 503.78749084 C86.83829342 503.81051562 81.22554793 503.79588833 75.61214232 503.77302146 C69.73501502 503.7540783 63.85793269 503.76526742 57.98078918 503.77192688 C48.11769796 503.77826115 38.25487967 503.76002487 28.3918457 503.72729492 C16.98368303 503.68975102 5.57603604 503.69160379 -5.8321541 503.7143361 C-16.80834582 503.73526585 -27.78434664 503.72802549 -38.76053429 503.70801735 C-43.43235401 503.70002432 -48.10401256 503.70203111 -52.77582741 503.71204185 C-58.27128629 503.72257345 -63.76614194 503.70852211 -69.26150513 503.67529869 C-71.28035021 503.66707504 -73.29925041 503.66739466 -75.31809044 503.67677689 C-78.06913016 503.68816022 -80.81827953 503.66889529 -83.56916809 503.64164734 C-84.37236774 503.65211883 -85.17556738 503.66259032 -86.00310642 503.67337912 C-89.86590489 503.60184745 -91.63529002 503.33339664 -94.53083324 500.68645954 C-96.5360598 497.0197825 -96.10231218 494.96832383 -95 491 C-93.8972168 489.32104492 -93.8972168 489.32104492 -92 488 C-89.49271968 487.6692937 -87.21862613 487.5117282 -84.70703125 487.48828125 C-83.64798836 487.46135445 -83.64798836 487.46135445 -82.56755066 487.43388367 C-80.31592759 487.37976822 -78.06451657 487.34588278 -75.8125 487.3125 C-74.28447569 487.27932781 -72.75647937 487.24483823 -71.22851562 487.20898438 C-67.48583011 487.12404175 -63.74320759 487.05723752 -60 487 C-60.46615723 486.53891846 -60.93231445 486.07783691 -61.41259766 485.6027832 C-64.49513055 482.53990215 -67.55257386 479.49526397 -70.375 476.1875 C-73.85445252 472.1399736 -77.4574547 468.2146617 -81.08203125 464.296875 C-85.69129691 458.77702122 -85.42664467 453.95619552 -85 447 C-84.5083868 442.79618421 -83.79996485 438.64535906 -83.05639648 434.47949219 C-82.84996521 433.27968719 -82.64353394 432.0798822 -82.43084717 430.84371948 C-81.98468714 428.2572303 -81.53533157 425.67155325 -81.08032036 423.08663177 C-80.36028019 418.99420137 -79.65480635 414.89933891 -78.95143127 410.80401611 C-77.20354049 400.64065437 -75.43572814 390.4807697 -73.6661377 380.32116699 C-72.28777302 372.40595105 -70.9144928 364.4899179 -69.55560356 356.57133222 C-68.85715426 352.5047168 -68.14863714 348.44002814 -67.43226802 344.37653303 C-66.88444035 341.25345813 -66.35046018 338.12800979 -65.81420898 335.00292969 C-65.6142482 333.88588654 -65.41428741 332.76884338 -65.20826721 331.61795044 C-63.46654866 321.9026029 -63.46654866 321.9026029 -67.0625 313.0625 C-67.701875 312.381875 -68.34125 311.70125 -69 311 C-69.495 311.474375 -69.99 311.94875 -70.5 312.4375 C-73.88021935 314.55013709 -77.07526532 315.11737524 -81 315 C-87.19641397 313.14107581 -90.06108914 310.45113695 -93.19885254 304.86611938 C-94.56737697 302.2455386 -95.89148458 299.60653974 -97.203125 296.95703125 C-97.6857782 295.99222336 -98.1684314 295.02741547 -98.66571045 294.03337097 C-99.6804139 292.00163055 -100.69217676 289.96841919 -101.70117188 287.93383789 C-103.25150899 284.80945895 -104.81252564 281.69058952 -106.375 278.57226562 C-107.3600107 276.59667099 -108.34440735 274.62077006 -109.328125 272.64453125 C-109.79679993 271.7080928 -110.26547485 270.77165436 -110.74835205 269.80683899 C-111.17589783 268.94221542 -111.6034436 268.07759186 -112.04394531 267.18676758 C-112.42270813 266.42463455 -112.80147095 265.66250153 -113.19171143 264.87727356 C-114 263 -114 263 -114 261 C-125.39106901 264.94137213 -136.69000749 269.08025692 -147.91357422 273.47680664 C-149.56324862 274.12067381 -151.21497869 274.7592972 -152.86865234 275.39282227 C-170.94043173 282.31743987 -184.91109191 289.77381348 -193.80859375 307.84765625 C-197.36447526 317.25616897 -197.27479475 326.4448123 -197.22705078 336.35180664 C-197.22648589 337.99843336 -197.22680475 339.64506058 -197.22793579 341.29168701 C-197.22850727 345.739404 -197.21678629 350.18701209 -197.20278788 354.63470387 C-197.1902462 359.29116714 -197.18910731 363.94763317 -197.18673706 368.60411072 C-197.18053237 377.41178601 -197.16413527 386.21941138 -197.14403808 395.02706474 C-197.12164756 405.05851451 -197.11067773 415.08996673 -197.10064721 425.12143528 C-197.07976812 445.74765754 -197.04310455 466.37381139 -197 487 C-183.14 487.33 -169.28 487.66 -155 488 C-155.01571045 483.51253174 -155.0314209 479.02506348 -155.04760742 474.40161133 C-155.09726304 459.59359512 -155.1305856 444.78557569 -155.15543652 429.97749805 C-155.17090763 420.99724396 -155.19200183 412.01706872 -155.22631836 403.03686523 C-155.25621322 395.21002722 -155.27557322 387.38324631 -155.28226548 379.55635279 C-155.2861776 375.41177755 -155.29537666 371.26736569 -155.31719017 367.12284279 C-155.33755673 363.22161884 -155.34383349 359.32062554 -155.33932304 355.41935349 C-155.34014817 353.98787749 -155.34611295 352.55639377 -155.35761642 351.12496376 C-155.37256131 349.16932893 -155.36716156 347.21357027 -155.36076355 345.25788879 C-155.36352893 344.16372052 -155.36629431 343.06955225 -155.36914349 341.94222736 C-154.94489569 338.56079569 -154.02672594 336.71927704 -152 334 C-149 332 -149 332 -145.5 332.1875 C-140.96331403 333.24065924 -140.96331403 333.24065924 -139 336 C-138.63085651 338.74298382 -138.63085651 338.74298382 -138.63923645 342.13127136 C-138.63511246 343.41434677 -138.63098846 344.69742218 -138.6267395 346.01937866 C-138.63735699 347.44415493 -138.64826142 348.86892907 -138.65942383 350.29370117 C-138.6602699 351.79166141 -138.65979534 353.28962289 -138.65809631 354.7875824 C-138.65723416 358.85763147 -138.67489535 362.9274163 -138.69581819 366.99740386 C-138.71454843 371.24950182 -138.71633254 375.50160556 -138.71989441 379.7537384 C-138.72922563 387.807288 -138.75385396 395.8607157 -138.78394288 403.91421157 C-138.8174534 413.08216691 -138.83396446 422.25012801 -138.84902918 431.41812932 C-138.8804026 450.27882204 -138.93318399 469.13940123 -139 488 C-138.41508789 487.97905273 -137.83017578 487.95810547 -137.22753906 487.93652344 C-134.56853535 487.85319885 -131.90980645 487.80129103 -129.25 487.75 C-128.32960938 487.71648437 -127.40921875 487.68296875 -126.4609375 487.6484375 C-119.65379304 487.54978323 -119.65379304 487.54978323 -116.390625 489.796875 C-114.34381509 493.03957385 -114.46423539 495.2496477 -115 499 C-116.54133606 501.18441772 -116.54133606 501.18441772 -119 503 C-121.74523148 503.40507905 -124.09337956 503.56774161 -126.83862305 503.54931641 C-128.01750343 503.5646492 -128.01750343 503.5646492 -129.22019958 503.58029175 C-131.81768302 503.60808281 -134.41410431 503.60616955 -137.01171875 503.6015625 C-138.8229054 503.60933962 -140.63408841 503.61800963 -142.44526672 503.62753296 C-146.24414884 503.64245928 -150.04265931 503.6418762 -153.84155273 503.63134766 C-158.69284774 503.61978995 -163.54260765 503.65353762 -168.3936491 503.700037 C-172.13683361 503.72961834 -175.87965363 503.73124035 -179.62293434 503.72501755 C-181.41019531 503.72603974 -183.19747782 503.73643568 -184.98462486 503.75664139 C-201.71468712 503.9225028 -201.71468712 503.9225028 -208.29719543 499.06820679 C-215.00416631 490.92199731 -214.57277221 482.70254493 -214.51757812 472.6484375 C-214.52300438 470.9885039 -214.53012987 469.32857512 -214.53881836 467.6686554 C-214.55700618 463.1742757 -214.55 458.68026464 -214.53730202 454.18587875 C-214.52713723 449.46481115 -214.53657858 444.743774 -214.54284668 440.02270508 C-214.55011869 432.08718237 -214.54055308 424.15180866 -214.52148438 416.21630859 C-214.49977653 407.0777548 -214.50672438 397.93955887 -214.52879 388.80101395 C-214.54702871 380.92887464 -214.54945939 373.05684221 -214.53903532 365.18468857 C-214.53283894 360.49495346 -214.53185611 355.80538559 -214.54518127 351.11566162 C-214.55686091 346.69628137 -214.54849664 342.27735469 -214.52560425 337.85802269 C-214.52037846 336.24896174 -214.52172367 334.63986168 -214.53065491 333.03081703 C-214.62933205 313.42275861 -210.18081124 295.7779053 -196.31445312 281.17578125 C-189.45718275 274.27236505 -182.31187648 269.37204236 -173.41015625 265.45703125 C-172.64429199 265.11877823 -171.87842773 264.78052521 -171.08935547 264.43202209 C-159.6745808 259.46985227 -148.01447871 255.10189942 -136.39019775 250.66033936 C-133.24718299 249.45840439 -130.10605341 248.25156484 -126.96484375 247.04492188 C-123.31324163 245.64236324 -119.66132206 244.2406922 -116.0078125 242.84310913 C-110.76795033 240.8379595 -105.53278378 238.82387198 -100.31640625 236.75830078 C-99.05455505 236.25998497 -99.05455505 236.25998497 -97.76721191 235.75160217 C-96.24712721 235.14948445 -94.72867171 234.54322887 -93.21228027 233.93186951 C-90.30972386 232.78308604 -88.15392196 232 -85 232 C-84.14451521 220.01155039 -84.14451521 220.01155039 -87.9765625 209.125 C-89.68143506 207.73154379 -91.43594759 206.39702654 -93.23046875 205.12109375 C-105.38430619 195.81286564 -110.42272441 179.35312015 -113 165 C-113.90878906 164.88785156 -113.90878906 164.88785156 -114.8359375 164.7734375 C-123.58105382 163.40112694 -130.91379478 160.11944229 -136.4375 153 C-142.07228886 144.64332161 -143.97013287 137.02907628 -143 127 C-140.54805746 117.61707136 -140.54805746 117.61707136 -137.45019531 114.38110352 C-135.32320328 110.88875448 -135.59828035 107.45993138 -135.62890625 103.4921875 C-135.61148436 101.76432133 -135.59390056 100.0364568 -135.57617188 98.30859375 C-135.56622807 95.6150344 -135.56246991 92.92160402 -135.56420898 90.22802734 C-135.52415325 61.54278411 -127.83783177 37.89045997 -107.84765625 16.6953125 C-79.55386164 -10.08482232 -35.05157187 -18.44251936 0 0 Z M-99 31 C-118.05350886 52.33761691 -119.71196639 74.98909043 -119 102 C-116.06044271 101.76473897 -116.06044271 101.76473897 -113 101 C-111.13434803 97.94462498 -111.13434803 97.94462498 -110.34765625 95.7890625 C-108.20465892 92.9441559 -105.33490433 91.90852026 -102 91 C-99.14830155 90.84079646 -96.52025118 90.81156523 -93.6875 90.9375 C-64.6553868 91.49736441 -35.70865237 83.11378857 -11.3203125 67.2578125 C-8.70238763 65.83866804 -7.02350804 65.56717774 -4.0625 65.5625 C-3.24910156 65.54316406 -2.43570313 65.52382812 -1.59765625 65.50390625 C4.69332264 66.70534132 8.80156636 71.60814951 12.875 76.1875 C13.65218384 77.05024536 13.65218384 77.05024536 14.44506836 77.93041992 C15.48340981 79.08404319 16.51951583 80.23968297 17.55322266 81.39746094 C18.82842502 82.80995306 20.13646331 84.19265208 21.44921875 85.5703125 C24.76195886 89.08512363 27.18311012 91.84475553 28.625 96.5 C29.07875 97.655 29.5325 98.81 30 100 C33.03550542 100.77870022 33.03550542 100.77870022 36 101 C36.49545681 74.37491347 33.15362954 51.80327172 15 31 C14.48050781 30.38511719 13.96101562 29.77023438 13.42578125 29.13671875 C0.31402715 14.76993529 -20.4988556 7.07091741 -39.5234375 6.00390625 C-62.40903973 5.97819209 -82.81992511 14.86803237 -99 31 Z M-10.32421875 84.1953125 C-11.17943115 84.66114746 -12.03464355 85.12698242 -12.91577148 85.60693359 C-14.2877771 86.35837646 -14.2877771 86.35837646 -15.6875 87.125 C-39.01424143 99.55297056 -64.25686781 106.08625761 -90.79077148 106.01635742 C-91.95535385 106.01399582 -93.11993622 106.01163422 -94.31980896 106.00920105 C-95.204272 106.0061647 -96.08873505 106.00312836 -97 106 C-97.11692787 113.43337779 -97.20523048 120.86665781 -97.25906086 128.30075169 C-97.28492457 131.75446601 -97.31988245 135.20754175 -97.37719727 138.66088867 C-97.74386161 161.35804909 -96.83365817 177.6071654 -80.6875 194.75 C-68.74582752 206.18737888 -53.91468678 210.3817194 -37.65625 210.2109375 C-22.69639368 209.34786887 -9.48528887 202.50517518 0.64990234 191.60644531 C9.34266283 181.26316068 13.87985474 168.40417058 14.28808594 155.00146484 C14.32351501 153.83940521 14.35894409 152.67734558 14.39544678 151.48007202 C14.50413004 146.87363968 14.59184209 142.2671751 14.65206528 137.65987206 C14.69816406 134.1750466 14.76544734 130.69360174 14.88476562 127.21044922 C16.31745633 110.05511036 16.31745633 110.05511036 10.18218994 94.84487915 C7.95161888 92.66248914 5.5238974 90.8288521 3 89 C1.79134491 87.61898282 0.61664645 86.20641899 -0.5 84.75 C-1.325 83.8425 -2.15 82.935 -3 82 C-6.32599536 82 -7.46492522 82.60987186 -10.32421875 84.1953125 Z M-123 122 C-125.77133589 125.2230177 -126.91620166 128.31764207 -127.4375 132.5625 C-126.59706054 139.16595294 -123.71280149 142.6273437 -118.81640625 146.80078125 C-116.77845677 148.29063337 -116.77845677 148.29063337 -113 149 C-113 138.44 -113 127.88 -113 117 C-116.86322753 117 -120.04969922 119.68523832 -123 122 Z M30 117 C30 127.23 30 137.46 30 148 C35.7380266 146.85239468 38.08417384 145.24614101 41.8125 140.875 C43.81260978 136.03262895 43.98422223 130.93598497 42.30859375 125.9375 C40.09510897 121.64019063 37.21011899 119.23942499 33 117 C32.01 117 31.02 117 30 117 Z M-69 221 C-70.16104516 226.29842036 -70.58505461 231.273525 -67.80322266 236.05859375 C-64.47897906 240.60521919 -60.67516518 244.73512264 -56.87744141 248.88671875 C-53.53816229 252.64547038 -50.55629854 256.68158437 -47.5534668 260.71069336 C-45.31208317 263.63478973 -43.507996 265.71481253 -40 267 C-33.76548866 259.74047229 -27.66142101 252.40751999 -21.79370117 244.84716797 C-21.36935791 244.3007666 -20.94501465 243.75436523 -20.5078125 243.19140625 C-20.09781006 242.65676758 -19.68780762 242.12212891 -19.26538086 241.57128906 C-18 240 -18 240 -16.58032227 238.49902344 C-14.07594661 235.81623813 -13.03481794 234.2445612 -12.51171875 230.5703125 C-12.56972656 229.43335938 -12.62773437 228.29640625 -12.6875 227.125 C-12.73261719 225.97257813 -12.77773438 224.82015625 -12.82421875 223.6328125 C-12.88222656 222.76398438 -12.94023437 221.89515625 -13 221 C-14.258125 221.28875 -15.51625 221.5775 -16.8125 221.875 C-18.54147886 222.25086497 -20.27065686 222.62581464 -22 223 C-22.81984375 223.19078125 -23.6396875 223.3815625 -24.484375 223.578125 C-38.07126063 226.46019165 -50.64525485 225.13942243 -64 222 C-65.66528442 221.65982842 -67.33142764 221.32365904 -69 221 Z M-86.328125 248.43359375 C-87.52695313 248.9121582 -87.52695313 248.9121582 -88.75 249.40039062 C-89.575 249.74263672 -90.4 250.08488281 -91.25 250.4375 C-92.09046875 250.77587891 -92.9309375 251.11425781 -93.796875 251.46289062 C-95.86882572 252.29873438 -97.93603615 253.14466649 -100 254 C-93.24769542 268.45948052 -86.18416295 282.7505869 -79 297 C-75.51609176 295.72414352 -72.67818921 294.24524478 -69.6796875 292.06640625 C-68.89722656 291.49986328 -68.11476562 290.93332031 -67.30859375 290.34960938 C-66.50550781 289.75986328 -65.70242187 289.17011719 -64.875 288.5625 C-64.06417969 287.97662109 -63.25335938 287.39074219 -62.41796875 286.78710938 C-59.06642223 284.34685112 -55.86680725 282.00885625 -53 279 C-56.64026828 274.31222595 -60.31156395 269.64995589 -64 265 C-64.90613037 263.8538623 -64.90613037 263.8538623 -65.83056641 262.68457031 C-67.68875416 260.34334078 -69.56118656 258.01421771 -71.4375 255.6875 C-72.02805176 254.94056885 -72.61860352 254.1936377 -73.22705078 253.42407227 C-73.79020996 252.73112061 -74.35336914 252.03816895 -74.93359375 251.32421875 C-75.42915771 250.70635498 -75.92472168 250.08849121 -76.43530273 249.4519043 C-79.7193149 246.40462385 -82.38823391 246.82949523 -86.328125 248.43359375 Z M-4.875 248.6953125 C-9.80424835 254.33132807 -14.51925959 260.08668154 -19.09667969 266.01147461 C-21.54579209 269.17950027 -24.04769242 272.22812835 -26.75 275.1875 C-27.4925 276.115625 -28.235 277.04375 -29 278 C-27.89897424 281.30307729 -27.43716051 281.67038785 -24.68359375 283.5234375 C-24.00103516 283.9875 -23.31847656 284.4515625 -22.61523438 284.9296875 C-21.53725586 285.64511719 -21.53725586 285.64511719 -20.4375 286.375 C-19.74591797 286.84421875 -19.05433594 287.3134375 -18.34179688 287.796875 C-13.62992107 290.97618356 -8.83826552 294.01722922 -4 297 C-1.12606763 292.05917088 1.55025756 287.05934494 4.109375 281.94921875 C4.48104797 281.2092012 4.85272095 280.46918365 5.23565674 279.70674133 C6.0131286 278.15682393 6.78954412 276.60637624 7.56494141 275.05541992 C8.75639903 272.67471381 9.95424221 270.29728996 11.15234375 267.91992188 C11.90924489 266.40904984 12.66576901 264.89798886 13.421875 263.38671875 C13.78118103 262.67529221 14.14048706 261.96386566 14.51068115 261.23088074 C16.36516196 257.78361149 16.36516196 257.78361149 17 254 C14.23174812 252.82685974 11.46071514 251.66129785 8.6875 250.5 C7.90181641 250.16613281 7.11613281 249.83226562 6.30664062 249.48828125 C5.1706543 249.01455078 5.1706543 249.01455078 4.01171875 248.53125 C3.31522217 248.23798828 2.61872559 247.94472656 1.90112305 247.64257812 C-1.11836184 246.62199456 -2.47191543 246.52252354 -4.875 248.6953125 Z M-45.33203125 292.7734375 C-46.50572619 293.62221124 -47.66566905 294.49026531 -48.8125 295.375 C-49.40998047 295.81328125 -50.00746094 296.2515625 -50.62304688 296.703125 C-52.0941262 297.78583938 -53.54875117 298.89084643 -55 300 C-53.25318198 304.98808503 -53.25318198 304.98808503 -50 309 C-47.03922567 309.70457348 -44.15929426 309.75962695 -41.125 309.75 C-39.89644287 309.75386719 -39.89644287 309.75386719 -38.64306641 309.7578125 C-33.80259131 309.58713753 -33.80259131 309.58713753 -29.703125 307.203125 C-28.46187096 305.14410358 -27.61126826 303.32074729 -27 301 C-28.55615009 299.70069021 -30.1202168 298.41085862 -31.6875 297.125 C-32.55761719 296.40570313 -33.42773438 295.68640625 -34.32421875 294.9453125 C-39.47086961 290.93051826 -39.47086961 290.93051826 -45.33203125 292.7734375 Z M-48 325 C-50.74293801 340.95002074 -53.48147273 356.90078836 -56.21417999 372.85256481 C-57.48314173 380.25927683 -58.75365595 387.66571627 -60.02783203 395.0715332 C-61.13843691 401.52665873 -62.2461219 407.98227732 -63.35030794 414.43850404 C-63.93503056 417.85679142 -64.52120926 421.27481459 -65.11088562 424.69225121 C-65.76920822 428.50784962 -66.42101123 432.3245459 -67.07226562 436.14135742 C-67.26863113 437.27352188 -67.46499664 438.40568634 -67.66731262 439.57215881 C-67.93235847 441.13488022 -67.93235847 441.13488022 -68.20275879 442.72917175 C-68.35762001 443.63160708 -68.51248123 444.53404242 -68.67203522 445.46382427 C-69.00668866 448.05172386 -69.21442503 450.39654845 -69 453 C-67.25059733 455.25853509 -65.56342932 457.17936662 -63.5625 459.1875 C-62.45648163 460.33931623 -61.351018 461.4916654 -60.24609375 462.64453125 C-59.69550293 463.21123535 -59.14491211 463.77793945 -58.57763672 464.36181641 C-56.37254279 466.6515379 -54.24600002 469.00745639 -52.125 471.375 C-51.41730469 472.16390625 -50.70960938 472.9528125 -49.98046875 473.765625 C-47.28091626 476.81127396 -44.63187393 479.89573844 -42 483 C-38.9253198 481.65482741 -37.12428098 480.27093546 -35 477.6875 C-32.24939307 474.43192204 -29.42950979 471.26691712 -26.52587891 468.1484375 C-25.46545691 467.00619382 -24.41172917 465.85769932 -23.36474609 464.703125 C-21.25942181 462.38518913 -19.22507603 460.18911236 -16.82421875 458.171875 C-14.87977739 456.47328255 -14.01310819 455.38487626 -13 453 C-13.02424461 449.92661178 -13.02424461 449.92661178 -13.59521484 446.3984375 C-13.73941392 445.3632473 -13.73941392 445.3632473 -13.88652611 444.30714417 C-15.48812514 433.15093286 -17.44954903 422.0453119 -19.3515625 410.9375 C-19.77499392 408.44935205 -20.19811491 405.96115125 -20.62094116 403.47290039 C-21.61348577 397.63643998 -22.60911476 391.80051263 -23.60630739 385.9648447 C-24.74334973 379.30969529 -25.87634713 372.65385917 -27.00904202 365.99796867 C-29.33493089 352.33122213 -31.66592197 338.66535012 -34 325 C-38.62 325 -43.24 325 -48 325 Z " fill="#0081FF" transform="translate(297,9)"/>
</svg>
