<?xml version="1.0" encoding="UTF-8"?>
<svg version="1.1" xmlns="http://www.w3.org/2000/svg" width="512" height="512">
<path d="M0 0 C0.92751477 -0.08866817 1.85502954 -0.17733634 2.81065083 -0.26869142 C5.94371993 -0.56209942 9.07794598 -0.83832775 12.21290588 -1.11076355 C13.85918447 -1.25602791 13.85918447 -1.25602791 15.5387212 -1.4042269 C45.46328825 -4.01432315 75.43323713 -5.6170447 105.44848794 -6.66819996 C107.60366124 -6.74409812 109.75873603 -6.82244281 111.91381311 -6.90102053 C239.31284755 -11.47778064 239.31284755 -11.47778064 289.83277291 34.44014758 C299.22736225 43.18637072 307.77616711 52.63095762 316.1096344 62.38069153 C316.73830965 63.11248359 317.36698489 63.84427566 318.0147109 64.59824324 C363.29006823 117.43269022 363.29006823 117.43269022 363.30076885 132.5642767 C363.3039933 133.71382019 363.30721774 134.86336368 363.3105399 136.04774183 C363.3089913 137.31639682 363.3074427 138.5850518 363.30584717 139.89215088 C363.30771451 141.24894924 363.31001491 142.60574706 363.31271249 143.96254402 C363.31884632 147.69916743 363.31869504 151.43576853 363.31751812 155.17239583 C363.31731451 159.19904562 363.322829 163.22568816 363.32757568 167.25233459 C363.33589128 175.14407903 363.33863093 183.03581599 363.33918806 190.92756443 C363.33966276 197.34002718 363.34171518 203.75248745 363.34488869 210.16494942 C363.35369746 228.33301042 363.35830767 246.5010655 363.35755821 264.66912865 C363.35749828 266.13909031 363.35749828 266.13909031 363.35743713 267.63874817 C363.35739625 268.61991468 363.35735537 269.6010812 363.35731325 270.61198003 C363.35690664 286.51998555 363.36647949 302.42796742 363.3805755 318.3359661 C363.39492462 334.6579812 363.4018465 350.97998474 363.40098172 367.3020063 C363.40064926 376.47051718 363.40341776 385.63900326 363.41415977 394.80750847 C363.42324551 402.61254564 363.42545592 410.41754677 363.41865035 418.22258692 C363.41537547 422.2068278 363.4153632 426.19099946 363.4240036 430.17523384 C363.43182691 433.82008235 363.43048022 437.46480626 363.42171947 441.10965157 C363.41944174 443.05807066 363.4270457 445.00649348 363.43495911 446.95489782 C363.43036032 448.10704906 363.42576152 449.2592003 363.42102337 450.44626522 C363.42134942 451.94068344 363.42134942 451.94068344 363.42168206 453.46529192 C363.15922372 456.20285602 362.68198581 457.78317095 361.1721344 460.06819153 C357.99316827 462.18750228 357.24238908 462.31515183 353.60890198 462.29524231 C352.68817398 462.29509125 351.76744598 462.29494019 350.81881714 462.29478455 C349.82810715 462.28446198 348.83739716 462.2741394 347.81666565 462.26350403 C346.29150581 462.25925919 346.29150581 462.25925919 344.73553467 462.25492859 C341.48511532 462.24372536 338.23497059 462.21862039 334.9846344 462.19319153 C332.78216442 462.18316192 330.57969012 462.17403604 328.37721252 462.16584778 C322.97542597 462.14378558 317.5737998 462.11030661 312.1721344 462.06819153 C312.18784485 463.37489807 312.2035553 464.68160461 312.21974182 466.02790833 C312.2741016 470.88266317 312.30850666 475.73739116 312.33692932 480.59236145 C312.35200212 482.69234239 312.37246381 484.79229192 312.39845276 486.89216614 C312.43490194 489.91315977 312.45187599 492.93373664 312.46510315 495.95491028 C312.48058701 496.89155014 312.49607086 497.82819 312.51202393 498.79321289 C312.51329281 503.72407385 312.395665 507.06975963 309.1721344 511.06819153 C306.45229661 513.78802932 305.01415007 513.32063493 301.20563698 513.32546043 C299.9257155 513.33190933 298.64579402 513.33835822 297.32708704 513.34500253 C295.89332517 513.34205979 294.45956369 513.33892431 293.02580261 513.33561707 C291.51312322 513.33935033 290.00044576 513.34395055 288.48777139 513.34934771 C284.31561301 513.36163324 280.14353448 513.36131075 275.97136211 513.35895896 C271.47774189 513.35855219 266.98414774 513.36957654 262.49053955 513.3790741 C253.68090115 513.3957155 244.8712895 513.40118506 236.0616367 513.40229885 C228.90353308 513.40324785 221.74543832 513.40735069 214.58733749 513.4137001 C194.31053902 513.43132113 174.03376176 513.44053764 153.75695558 513.43903916 C152.11588706 513.43891929 152.11588706 513.43891929 150.44166565 513.438797 C149.34629027 513.43871524 148.2509149 513.43863347 147.12234633 513.43854924 C129.36482439 513.4377361 111.60738724 513.45687836 93.84988983 513.48507373 C75.63400124 513.51376962 57.41815404 513.52761584 39.20224226 513.52588618 C28.96840104 513.52522113 18.7346487 513.53076344 8.50082779 513.55224228 C-0.21188758 513.57041082 -8.9244738 513.57483719 -17.63719986 513.56122343 C-22.08528502 513.55467178 -26.53312211 513.55465525 -30.98118401 513.57192993 C-35.04992936 513.5875694 -39.11822811 513.58489146 -43.18696196 513.56736167 C-44.66206647 513.56427149 -46.13720357 513.56799945 -47.61226968 513.57908182 C-49.61136397 513.59311132 -51.61059358 513.58027676 -53.6096859 513.56596947 C-54.72194176 513.5664042 -55.83419762 513.56683894 -56.98015821 513.56728685 C-60.4877712 512.95253505 -61.6347148 511.81167291 -63.8278656 509.06819153 C-65.34508209 506.03375855 -64.96724264 502.88701845 -64.95929337 499.55836773 C-64.961346 498.77077589 -64.96339863 497.98318404 -64.96551347 497.17172578 C-64.97121571 494.50452384 -64.96972227 491.83737302 -64.9683075 489.17016602 C-64.97088929 487.24984579 -64.97390192 485.3295261 -64.9773109 483.40920717 C-64.98540601 478.11024285 -64.98717186 472.81129207 -64.98790836 467.51232231 C-64.98975456 461.80600167 -64.99729967 456.09968814 -65.00404358 450.39337158 C-65.01764511 437.90595019 -65.02365441 425.41853199 -65.02805424 412.93110442 C-65.03081351 405.13950707 -65.03505027 397.34791097 -65.03955841 389.55631447 C-65.05175331 367.99968487 -65.06208768 346.44305691 -65.0654335 324.88642406 C-65.06565514 323.49190003 -65.06587692 322.097376 -65.06609885 320.70285197 C-65.0663195 319.30492039 -65.06653998 317.90698881 -65.0667603 316.50905722 C-65.06720286 313.70446853 -65.06764997 310.89987983 -65.06809998 308.09529114 C-65.06820937 307.39991401 -65.06831876 306.70453688 -65.06843146 305.98808772 C-65.07206304 283.43454471 -65.08798631 260.88103383 -65.11129034 238.32750312 C-65.13587212 214.4938832 -65.14959883 190.66028369 -65.15080142 166.82665044 C-65.15171957 153.8300862 -65.1575071 140.83356402 -65.17562103 127.83701134 C-65.19098833 116.77184186 -65.19616246 105.70672743 -65.18788293 94.64154931 C-65.18396448 88.99240617 -65.18496406 83.34337401 -65.19894028 77.69424438 C-65.21160778 72.52699977 -65.21054501 67.35995033 -65.19834957 62.19270626 C-65.1963801 60.31920177 -65.1995281 58.44568378 -65.20819393 56.57219829 C-65.21919896 54.03307187 -65.21186109 51.49464493 -65.1998024 48.95553875 C-65.20739759 48.22162054 -65.21499279 47.48770232 -65.22281814 46.73154417 C-65.17761127 42.34725158 -64.5268496 39.55540472 -61.8278656 36.06819153 C-59.45395724 34.88123735 -58.02541609 34.94743319 -55.37815857 34.95466614 C-53.99695328 34.95477943 -53.99695328 34.95477943 -52.58784485 34.95489502 C-51.09403793 34.96263695 -51.09403793 34.96263695 -49.5700531 34.97053528 C-48.04277084 34.9726577 -48.04277084 34.9726577 -46.4846344 34.974823 C-43.22401525 34.98043252 -39.96346409 34.99298665 -36.7028656 35.00569153 C-34.49583534 35.0107053 -32.28880401 35.01526842 -30.08177185 35.0193634 C-24.66377979 35.03040505 -19.24582755 35.04715247 -13.8278656 35.06819153 C-13.84357605 34.27646545 -13.8592865 33.48473938 -13.87547302 32.66902161 C-13.93793259 29.07298458 -13.97689195 25.47706183 -14.0153656 21.88069153 C-14.04050232 20.63481262 -14.06563904 19.38893372 -14.09153748 18.1053009 C-14.10120544 16.90325012 -14.11087341 15.70119934 -14.12083435 14.46272278 C-14.1365448 13.35775452 -14.15225525 12.25278625 -14.16844177 11.11433411 C-13.17138351 2.19655925 -7.8878732 0.70382671 0 0 Z M4.1721344 19.06819153 C4.1721344 159.31819153 4.1721344 299.56819153 4.1721344 444.06819153 C116.7021344 444.06819153 229.2321344 444.06819153 345.1721344 444.06819153 C345.1721344 343.08819153 345.1721344 242.10819153 345.1721344 138.06819153 C307.5521344 137.73819153 269.9321344 137.40819153 231.1721344 137.06819153 C227.1721344 134.06819153 227.1721344 134.06819153 226.1721344 131.06819153 C226.07163936 129.53300081 226.02597537 127.99390404 226.01391602 126.45547485 C226.00414199 125.51093099 225.99436796 124.56638712 225.98429775 123.59322071 C225.9785275 122.55475844 225.97275724 121.51629618 225.96681213 120.44636536 C225.95176305 118.78057576 225.95176305 118.78057576 225.93640995 117.08113384 C225.90497725 113.47918485 225.88023404 109.87722487 225.85572815 106.27522278 C225.83732912 104.05431251 225.81849268 101.83340582 225.79920959 99.61250305 C225.7307102 91.36860827 225.67069058 83.1246448 225.6096344 74.88069153 C225.4652594 56.46256653 225.3208844 38.04444153 225.1721344 19.06819153 C152.2421344 19.06819153 79.3121344 19.06819153 4.1721344 19.06819153 Z M243.1721344 32.06819153 C243.1721344 61.10819153 243.1721344 90.14819153 243.1721344 120.06819153 C272.2121344 120.06819153 301.2521344 120.06819153 331.1721344 120.06819153 C326.39789147 114.46039184 326.39789147 114.46039184 321.38226318 109.15133667 C320.69391388 108.46016754 320.00556458 107.76899841 319.2963562 107.05688477 C318.56208908 106.32464188 317.82782196 105.59239899 317.07130432 104.83796692 C316.28199524 104.04690552 315.49268616 103.25584412 314.67945862 102.44081116 C312.08967047 99.84664828 309.49627371 97.25612854 306.90260315 94.66584778 C305.0973879 92.85995863 303.29232109 91.05392109 301.48739624 89.2477417 C297.71571908 85.47459386 293.94229597 81.70320424 290.16749573 77.93318176 C285.79955168 73.57070229 281.43525362 69.2046001 277.07278556 64.83664519 C272.87083075 60.62961692 268.66608206 56.42538981 264.46012306 52.22236443 C262.6711151 50.43402555 260.8828552 48.64493803 259.09534264 46.85510445 C256.60796233 44.36520143 254.11742839 41.87849774 251.62599182 39.39265442 C250.88160355 38.64624191 250.13721527 37.89982941 249.37026978 37.13079834 C248.69601959 36.45936798 248.02176941 35.78793762 247.3270874 35.09616089 C246.73848025 34.50793077 246.1498731 33.91970064 245.54342937 33.31364536 C244.35750152 31.95613743 244.35750152 31.95613743 243.1721344 32.06819153 Z M-46.8278656 53.06819153 C-46.8278656 198.92819153 -46.8278656 344.78819153 -46.8278656 495.06819153 C65.7021344 495.06819153 178.2321344 495.06819153 294.1721344 495.06819153 C294.1721344 484.17819153 294.1721344 473.28819153 294.1721344 462.06819153 C290.38278915 462.06232529 286.59344391 462.05645905 282.68927002 462.05041504 C247.96750825 461.99527903 213.24580165 461.92534644 178.52410249 461.83920525 C173.97652291 461.82793662 169.42894301 461.81679824 164.88136292 461.80574036 C163.97599357 461.80353667 163.07062423 461.80133299 162.13781945 461.79906253 C147.46407331 461.76365725 132.79032722 461.73881138 118.11655416 461.71784451 C103.06813026 461.69610815 88.01976194 461.66307843 72.9713853 461.61948997 C63.6802342 461.59293584 54.38915241 461.57526821 45.09796522 461.56884549 C38.73299604 461.56360307 32.36811421 461.54742491 26.00319179 461.52252587 C22.32691877 461.50847134 18.65080224 461.49935469 14.97450066 461.50318336 C10.99486564 461.50720244 7.01553411 461.48825296 3.03594971 461.46691895 C1.28062149 461.47419031 1.28062149 461.47419031 -0.5101679 461.48160857 C-1.5716099 461.47215203 -2.63305191 461.46269549 -3.72665882 461.45295238 C-4.64596174 461.45105378 -5.56526466 461.44915518 -6.51242524 461.44719905 C-9.30071428 460.99079234 -10.15353205 460.30766341 -11.8278656 458.06819153 C-12.96780254 454.6483807 -12.95867013 452.02891203 -12.9665308 448.42086506 C-12.97079413 447.39758343 -12.97079413 447.39758343 -12.97514358 446.35362944 C-12.9835137 444.05105872 -12.9847606 441.74853816 -12.98608398 439.44595337 C-12.99064776 437.78519324 -12.99564751 436.12443425 -13.00104755 434.46367663 C-13.01465909 429.88702453 -13.02205572 425.31037987 -13.02847421 420.73371279 C-13.03646493 415.80324021 -13.05016727 410.87278319 -13.06318665 405.94232178 C-13.08496827 397.39563292 -13.10310658 388.84894251 -13.11879158 380.30224037 C-13.14147487 367.94504363 -13.16961982 355.58786412 -13.19911086 343.23068198 C-13.24680569 323.18344341 -13.29006474 303.13619781 -13.33055115 283.08894348 C-13.36989646 263.61139885 -13.41132036 244.13386047 -13.45555115 224.65632629 C-13.45827542 223.45634224 -13.46099969 222.25635819 -13.46380652 221.02001099 C-13.47748584 215.00022617 -13.49120614 208.98044144 -13.50494683 202.96065676 C-13.61894131 152.99651458 -13.7254715 103.03235872 -13.8278656 53.06819153 C-24.7178656 53.06819153 -35.6078656 53.06819153 -46.8278656 53.06819153 Z " fill="#0081FF" transform="translate(106.82786560058594,-1.0681915283203125)"/>
<path d="M0 0 C0.85981057 -0.00367669 1.71962114 -0.00735338 2.60548657 -0.01114148 C5.50353243 -0.02220634 8.40154247 -0.02602688 11.29960632 -0.02983093 C13.37058121 -0.03609341 15.44155496 -0.04274002 17.51252747 -0.04974365 C23.15099077 -0.06717218 28.78944558 -0.07771023 34.42792916 -0.08594918 C37.9480296 -0.09109486 41.46812737 -0.09717075 44.98822594 -0.10346031 C55.99424947 -0.1225166 67.00026627 -0.13674743 78.00630313 -0.14507228 C90.72515563 -0.15485067 103.44383437 -0.18118416 116.16262561 -0.22157317 C125.98432037 -0.25169579 135.80596521 -0.26653745 145.62770528 -0.26985329 C151.49818221 -0.27220798 157.36847361 -0.28122283 163.23890114 -0.30631447 C168.76039303 -0.32953306 174.28157641 -0.33385343 179.8031044 -0.32355309 C181.83122596 -0.32305612 183.85936238 -0.32942371 185.88743782 -0.34310913 C188.65352167 -0.36073232 191.4184868 -0.35376926 194.18457031 -0.34057617 C195.39216278 -0.35703004 195.39216278 -0.35703004 196.62415105 -0.37381631 C200.32983466 -0.33106078 202.56704532 0.01551512 205.75764751 1.96281147 C208.55977052 4.98528173 208.78276062 7.06938516 208.78276062 11.14717102 C207.19437128 14.72104704 206.06641704 15.95806674 202.78276062 18.14717102 C199.95856495 18.34751327 197.23234045 18.42972046 194.40730286 18.42132568 C193.54255431 18.42656236 192.67780576 18.43179904 191.78685272 18.43719441 C188.87805308 18.45224238 185.9694286 18.45290061 183.06059265 18.4535675 C180.9796163 18.46118574 178.89864278 18.46961265 176.81767273 18.47879028 C171.15653278 18.50077468 165.49544686 18.50953942 159.83426905 18.51461673 C156.29958482 18.51825549 152.76491486 18.52449302 149.23023605 18.53161812 C136.90512721 18.55612581 124.58006055 18.56916747 112.25492859 18.57270813 C100.75607173 18.57634495 89.25748153 18.60624759 77.75870621 18.64811271 C67.89452098 18.68277091 58.03042432 18.69825579 48.16617858 18.69895416 C42.27109122 18.69974847 36.37627536 18.70855778 30.48125076 18.73695183 C24.93752052 18.7630559 19.39428835 18.76538041 13.8505249 18.74929619 C11.81433912 18.74747562 9.77812519 18.75422689 7.74200058 18.7701149 C4.96480076 18.79046661 2.18936156 18.78008825 -0.58781433 18.76190186 C-1.3960848 18.77510182 -2.20435528 18.78830179 -3.03711879 18.80190176 C-7.13159824 18.74054015 -8.98093015 18.33679273 -12.2172718 15.73985386 C-14.18099346 13.19415887 -14.88585502 12.2244456 -14.77973938 9.08467102 C-14.21723938 5.14717102 -14.21723938 5.14717102 -12.34223938 2.70967102 C-8.29501594 -0.26622857 -4.86586994 -0.00110512 0 0 Z " fill="#0081FF" transform="translate(210.2172393798828,263.8528289794922)"/>
<path d="M0 0 C0.8664574 -0.00709439 1.73291479 -0.01418877 2.62562847 -0.02149814 C5.52862104 -0.03909854 8.43027833 -0.02096301 11.33325195 -0.00291443 C13.41452647 -0.00805246 15.49579664 -0.01533285 17.57705688 -0.02459717 C23.22997224 -0.04313401 28.88241681 -0.03015793 34.53531265 -0.01050687 C40.44802665 0.00586194 46.3607104 -0.0029308 52.2734375 -0.00802612 C62.203283 -0.01254904 72.13294026 0.0033352 82.06274414 0.03126526 C93.54686285 0.06331793 105.030642 0.06330199 116.51478481 0.04605049 C127.55715129 0.03019287 138.59939314 0.03691408 149.64175415 0.0539875 C154.34342766 0.0608644 159.04500146 0.05981896 163.74667358 0.05244255 C169.2822186 0.04478776 174.81737667 0.05687983 180.35285568 0.08429146 C182.38579535 0.09118479 184.4187711 0.09126315 186.45170975 0.08407593 C189.22426211 0.07540256 191.9956145 0.0913014 194.76806641 0.11352539 C195.57497264 0.10528462 196.38187887 0.09704386 197.21323681 0.08855337 C200.94292926 0.1438353 203.16453326 0.49155625 206.36003113 2.48066807 C208.9802517 5.26079306 209.3840332 6.82118906 209.3840332 10.62818909 C208.27638949 13.65963503 207.44673938 15.85390961 204.79740906 17.78419113 C201.2229548 19.03423765 197.69857938 18.90294885 193.95751953 18.88215637 C193.0993781 18.88527635 192.24123667 18.88839633 191.35709095 18.89161086 C188.47667927 18.89959907 185.59647777 18.89326399 182.71606445 18.88697815 C180.65302405 18.88968764 178.58998462 18.89324834 176.52694702 18.89759827 C170.91963207 18.90672946 165.31239057 18.90317498 159.70507431 18.8968401 C153.84260609 18.8917839 147.98014424 18.89647049 142.11767578 18.89961243 C132.27187976 18.90325318 122.42611373 18.8984501 112.58032227 18.88893127 C101.19001138 18.87804653 89.79977208 18.88157203 78.40946293 18.89258409 C68.63784452 18.90165384 58.86624769 18.90294376 49.09462643 18.89770675 C43.25501774 18.89458534 37.41544272 18.8941824 31.57583618 18.90077972 C26.0863878 18.90654802 20.59703191 18.90256572 15.10759354 18.89099121 C13.09035013 18.88834186 11.07309896 18.88911438 9.05585861 18.89351654 C6.30731551 18.89896255 3.55907085 18.8921493 0.81054688 18.88215637 C0.00782758 18.88661782 -0.79489172 18.89107926 -1.62193584 18.8956759 C-8.58991141 18.84636664 -8.58991141 18.84636664 -11.6159668 16.62818909 C-13.72809183 13.46000153 -13.94753144 11.49599657 -14.17456055 7.76100159 C-12.30208888 0.6115643 -6.37485447 -0.09350658 0 0 Z " fill="#0081FF" transform="translate(209.615966796875,212.37181091308594)"/>
<path d="M0 0 C0.85914472 -0.00638882 1.71828943 -0.01277764 2.60346884 -0.01936007 C5.47574206 -0.03459283 8.34663211 -0.01416038 11.21885681 0.00622559 C13.28057309 0.0027239 15.34228666 -0.0029352 17.4039917 -0.0105896 C22.99901444 -0.02483942 28.59354585 -0.00777433 34.18852162 0.01569557 C40.04249851 0.03579707 45.89645485 0.02992542 51.75045776 0.02758789 C61.58017586 0.02764147 71.40970176 0.04740143 81.23936462 0.07946777 C92.60701796 0.11637086 103.97441958 0.12514192 115.342125 0.11817026 C126.27502791 0.11186749 137.20784442 0.12261474 148.1407299 0.14213562 C152.79493375 0.15031452 157.44909347 0.15301826 162.10330391 0.15144348 C167.5821786 0.15056524 173.06081368 0.16476455 178.53962517 0.19067001 C180.55160231 0.19783853 182.56360493 0.19991215 184.57559204 0.19655228 C187.3194544 0.19284388 190.062615 0.20756273 192.80639648 0.22705078 C193.6048387 0.22172286 194.40328092 0.21639493 195.22591835 0.21090555 C199.76554464 0.26663276 202.74179513 0.78205092 206.33970642 3.62145996 C208.08298055 6.55333009 208.35403062 8.27051712 208.21470642 11.68395996 C207.15490224 15.24187401 206.31573692 16.4019572 203.33970642 18.62145996 C200.37150301 19.01633203 197.77405653 19.16618205 194.80603027 19.13612366 C193.50150049 19.14654195 193.50150049 19.14654195 192.17061657 19.15717071 C189.25089035 19.17549485 186.33197171 19.16516137 183.41221619 19.15490723 C181.32123708 19.16196297 179.23026309 19.17070652 177.13929749 19.18101501 C171.45541224 19.20355759 165.7718048 19.20055783 160.08789182 19.19169354 C155.34613678 19.1865911 150.60443429 19.19387019 145.86268467 19.20116562 C134.67813953 19.21818017 123.49373078 19.21458314 112.30918884 19.19787598 C100.76314034 19.18095204 89.21746981 19.19678965 77.6714626 19.22909886 C67.76477556 19.25577252 57.85820635 19.26307678 47.951487 19.25458378 C42.03184843 19.24964822 36.11243736 19.2519043 30.19282722 19.27237129 C24.62688631 19.29069338 19.0614902 19.28481187 13.49557877 19.26017189 C11.45134314 19.25515303 9.40706626 19.25868149 7.36286354 19.27132034 C4.57473378 19.28719661 1.78840995 19.27235153 -0.99963379 19.24964905 C-1.81111309 19.26148478 -2.62259239 19.2733205 -3.45866197 19.28551489 C-7.55910126 19.21755079 -9.41938401 18.81517481 -12.65788364 16.21110439 C-14.58351622 13.72075334 -15.36643007 12.70269295 -15.34779358 9.62145996 C-15.37228577 8.98208496 -15.39677795 8.34270996 -15.42201233 7.68395996 C-12.8100344 0.6115274 -6.53260974 -0.10270414 0 0 Z " fill="#0081FF" transform="translate(210.66029357910156,314.3785400390625)"/>
<path d="M0 0 C1.30686977 -0.01064158 1.30686977 -0.01064158 2.64014095 -0.02149814 C5.55928449 -0.03909914 8.47710026 -0.02096273 11.39622498 -0.00291443 C13.48897407 -0.0080524 15.58171884 -0.01533275 17.67445374 -0.02459717 C23.35829181 -0.04313364 29.04166165 -0.03015861 34.72548032 -0.01050687 C40.6693587 0.00586007 46.61320697 -0.00293044 52.55709839 -0.00802612 C62.53821812 -0.0125489 72.51915056 0.00333519 82.50022888 0.03126526 C94.04685099 0.06332663 105.59313542 0.06329856 117.13978153 0.04605049 C128.23981632 0.03019902 139.33972706 0.03690954 150.43975639 0.0539875 C155.167376 0.06086786 159.89489648 0.05981545 164.62251472 0.05244255 C170.18678317 0.04479383 175.75066625 0.05685985 181.31486893 0.08429146 C183.35951658 0.09119086 185.40420013 0.0912567 187.44884682 0.08407593 C190.23488579 0.07541725 193.01972562 0.09127621 195.80566406 0.11352539 C196.61937409 0.10528462 197.43308411 0.09704386 198.27145201 0.08855337 C201.83792457 0.14131041 203.91801972 0.31281021 206.81410122 2.48066807 C208.82418148 5.31084067 209.26988452 7.15540468 209.33934021 10.62818909 C208.23121553 13.66095136 207.40248922 15.8552296 204.74992275 17.78377056 C201.19034709 19.03067731 197.68371724 18.90652952 193.95751953 18.8888855 C193.10416722 18.89271105 192.2508149 18.89653659 191.37160343 18.90047807 C188.50735242 18.91081073 185.64330177 18.90681541 182.77903748 18.90284729 C180.72747105 18.90719361 178.67590625 18.91237648 176.62434387 18.91833496 C171.04795834 18.9317446 165.4716405 18.93230146 159.89524198 18.92977166 C155.2429725 18.92870332 150.5907168 18.93358179 145.93845028 18.93837708 C134.96489208 18.94947899 123.99136811 18.94990578 113.01780701 18.94386292 C101.68997611 18.93782098 90.36226936 18.95013821 79.03445965 18.97143298 C69.31462802 18.9890344 59.59483596 18.99505266 49.87498897 18.99179524 C44.0671841 18.98997997 38.25946779 18.9926429 32.45167732 19.00650978 C26.99092149 19.0190598 21.53035954 19.01717079 16.06960678 19.00409889 C14.06406909 19.00172742 12.05851787 19.00448812 10.05299568 19.01272202 C7.31781858 19.0231429 4.5832977 19.01512636 1.84814453 19.00241089 C0.65427127 19.01347232 0.65427127 19.01347232 -0.56372064 19.02475721 C-5.10679655 18.98024454 -8.0713323 18.48173419 -11.66065979 15.62818909 C-14.16097633 11.87771427 -14.19669533 10.06962643 -13.66065979 5.62818909 C-9.7786588 0.37550627 -6.18028873 -0.09014182 0 0 Z " fill="#0081FF" transform="translate(209.66065979003906,161.37181091308594)"/>
<path d="M0 0 C1.25953579 -0.00445668 1.25953579 -0.00445668 2.54451674 -0.0090034 C5.36258889 -0.01768585 8.18061853 -0.01919826 10.998703 -0.02069092 C13.01746715 -0.02531938 15.03623042 -0.03034408 17.05499268 -0.03573608 C22.54265378 -0.04885866 28.03030265 -0.05530468 33.517977 -0.05974674 C36.94597364 -0.06267747 40.37396694 -0.06678227 43.8019619 -0.07125092 C54.52606656 -0.08492498 65.25016358 -0.09459229 75.97427636 -0.09845281 C88.35629537 -0.10293458 100.73820404 -0.12048845 113.12018949 -0.1494534 C122.68972939 -0.17106278 132.25923824 -0.18115668 141.82880229 -0.18249393 C147.5450179 -0.18354241 153.26112978 -0.18945966 158.97731972 -0.20731354 C164.35435221 -0.22378146 169.73120286 -0.22595588 175.10825157 -0.21717453 C177.08070233 -0.21640349 179.05316281 -0.22075561 181.02558899 -0.23063278 C183.72064515 -0.24333616 186.41505564 -0.23748423 189.11010742 -0.22705078 C189.8885244 -0.23510719 190.66694138 -0.24316359 191.46894675 -0.25146413 C196.598004 -0.20510285 200.19424735 0.72390533 204.74552917 3.14044189 C206.64493794 6.06869707 206.7624894 7.72491644 206.62052917 11.20294189 C205.56024709 14.76246033 204.72440629 15.92131697 201.74552917 18.14044189 C198.76302255 18.53530607 196.14953964 18.68514055 193.16716003 18.65510559 C191.85544657 18.66552388 191.85544657 18.66552388 190.51723385 18.67615265 C187.58135557 18.69447726 184.64628036 18.6841432 181.71037292 18.67388916 C179.60791924 18.68094482 177.50547064 18.68968834 175.4030304 18.69999695 C169.68822199 18.72253899 163.9736899 18.71954009 158.25885391 18.71067548 C153.49215143 18.70557351 148.72550123 18.71285164 143.95880413 18.72014755 C132.71676775 18.73716154 121.47486706 18.73356517 110.23283386 18.71685791 C98.62428216 18.69992938 87.01610629 18.71577802 75.40759563 18.74808079 C65.44912013 18.77474502 55.49076185 18.78206142 45.53225422 18.77356571 C39.58078993 18.76862796 33.6295519 18.77089818 27.67811584 18.79135323 C22.08345173 18.80966086 16.48932996 18.80381167 10.89469528 18.77915382 C8.83875171 18.77413057 6.78276716 18.77767471 4.72685623 18.79030228 C1.92524021 18.8061518 -0.87457207 18.79135904 -3.67610168 18.76863098 C-4.90352632 18.78638457 -4.90352632 18.78638457 -6.15574741 18.80449682 C-10.04840733 18.74010485 -11.8565919 18.50903284 -14.7593689 15.81993008 C-16.73360657 12.28174555 -16.82546786 10.13742115 -16.25447083 6.14044189 C-13.44870677 1.53097238 -13.44870677 1.53097238 -10.34445935 0.51584363 C-6.91756699 -0.09969149 -3.470364 -0.00383005 0 0 Z " fill="#0081FF" transform="translate(212.2544708251953,365.85955810546875)"/>
<path d="M0 0 C1.10487259 -0.00960754 2.20974518 -0.01921509 3.34809875 -0.02911377 C5.14648445 -0.03548859 5.14648445 -0.03548859 6.98120117 -0.04199219 C8.20949142 -0.04769226 9.43778168 -0.05339233 10.70329285 -0.05926514 C13.30674373 -0.06872588 15.91020665 -0.07525337 18.51367188 -0.07910156 C22.4971514 -0.08565513 26.48026428 -0.11981388 30.46362305 -0.15136719 C32.99031268 -0.15789758 35.51700602 -0.16314791 38.04370117 -0.16699219 C39.23655228 -0.17933899 40.42940338 -0.19168579 41.65840149 -0.20440674 C42.77273056 -0.20140564 43.88705963 -0.19840454 45.03515625 -0.1953125 C46.01285477 -0.19895813 46.99055328 -0.20260376 47.99787903 -0.20635986 C51.2679297 0.23645969 53.09261574 1.16793297 55.71166992 3.16113281 C57.88864793 6.25818029 57.96864494 8.9503099 57.98632812 12.67651367 C57.99586014 13.7812352 58.00539215 14.88595673 58.01521301 16.02415466 C58.01430161 17.21275589 58.0133902 18.40135712 58.01245117 19.62597656 C58.0167363 20.85143692 58.02102142 22.07689728 58.0254364 23.3394928 C58.03117923 25.93099347 58.03168032 28.52251026 58.02734375 31.11401367 C58.02418487 35.07986947 58.04764119 39.04497868 58.07299805 43.01074219 C58.07527112 45.52831937 58.0759745 48.04589856 58.07495117 50.56347656 C58.08416092 51.75005356 58.09337067 52.93663055 58.1028595 54.15916443 C58.09663071 55.26703812 58.09040192 56.3749118 58.08398438 57.51635742 C58.0846138 58.48802353 58.08524323 59.45968964 58.08589172 60.46080017 C57.63004903 63.75009784 56.76474928 65.55386087 54.71166992 68.16113281 C51.24036306 70.0736383 48.28103406 70.41310263 44.3581543 70.41992188 C43.31357056 70.4262262 42.26898682 70.43253052 41.19274902 70.43902588 C40.07493042 70.43497742 38.95711182 70.43092896 37.80541992 70.42675781 C36.06923401 70.42962799 36.06923401 70.42962799 34.29797363 70.43255615 C31.85367617 70.43391561 29.40937143 70.43023592 26.96508789 70.421875 C23.22550221 70.4111724 19.48639693 70.42177873 15.74682617 70.43457031 C13.37052303 70.43324868 10.99422019 70.4306862 8.61791992 70.42675781 C6.94119202 70.43283051 6.94119202 70.43283051 5.23059082 70.43902588 C4.18600708 70.43272156 3.14142334 70.42641724 2.06518555 70.41992188 C1.14983032 70.41833069 0.2344751 70.4167395 -0.70861816 70.4151001 C-4.35844737 70.05578199 -7.08453681 69.01212007 -10.07557678 66.89768982 C-11.83594408 64.3769973 -11.67661599 62.43203024 -11.69238281 59.3762207 C-11.70506699 58.18811295 -11.71775116 57.00000519 -11.7308197 55.77589417 C-11.72788406 54.49149948 -11.72494843 53.2071048 -11.72192383 51.88378906 C-11.72716568 50.5657579 -11.73240753 49.24772675 -11.73780823 47.88975525 C-11.74674279 45.09966466 -11.74431293 42.30986024 -11.734375 39.51977539 C-11.72288908 35.94724646 -11.7430874 32.37570652 -11.77229214 28.80330753 C-11.79507075 25.39258228 -11.78818694 21.9820886 -11.78442383 18.57128906 C-11.79565781 17.28891861 -11.80689178 16.00654816 -11.81846619 14.68531799 C-11.80908524 13.49405807 -11.79970428 12.30279816 -11.79003906 11.07543945 C-11.78987289 10.02747696 -11.78970673 8.97951447 -11.78953552 7.89979553 C-11.16261593 4.4742116 -9.95918607 3.32070526 -7.28833008 1.16113281 C-4.7224607 -0.12180188 -2.87301459 0.02011352 0 0 Z M6.71166992 18.16113281 C6.71166992 29.38113281 6.71166992 40.60113281 6.71166992 52.16113281 C17.60166992 52.16113281 28.49166992 52.16113281 39.71166992 52.16113281 C39.71166992 40.94113281 39.71166992 29.72113281 39.71166992 18.16113281 C28.82166992 18.16113281 17.93166992 18.16113281 6.71166992 18.16113281 Z " fill="#0081FF" transform="translate(156.288330078125,75.8388671875)"/>
<path d="M0 0 C1.0415625 -0.02900391 2.083125 -0.05800781 3.15625 -0.08789062 C10.81145693 -0.15152086 10.81145693 -0.15152086 14.7890625 2.1171875 C17.35455507 5.18486159 17.625 7.3468562 17.625 11.3125 C16.03661066 14.88637602 14.90865642 16.12339572 11.625 18.3125 C7.6828318 18.80263484 3.71936806 18.72901039 -0.25 18.75 C-1.88388672 18.79930664 -1.88388672 18.79930664 -3.55078125 18.84960938 C-11.53641383 18.90336822 -11.53641383 18.90336822 -15.6015625 16.0390625 C-18.27748127 11.92498474 -17.98881214 10.14627061 -17.375 5.3125 C-13.78366498 -1.35712218 -6.65519407 0.06131936 0 0 Z " fill="#0081FF" transform="translate(162.375,263.6875)"/>
<path d="M0 0 C0.99837891 -0.020625 1.99675781 -0.04125 3.02539062 -0.0625 C12.20814579 -0.11144207 12.20814579 -0.11144207 16.1875 3.25 C18.28851595 5.9240203 18.18596976 7.29284685 18.0625 10.75 C17.08402817 14.66388731 16.30321568 15.78963277 13.1875 18.25 C9.08111524 19.0705259 4.92923603 18.85279893 0.75 18.8125 C-0.38244141 18.83634766 -1.51488281 18.86019531 -2.68164062 18.88476562 C-10.92894759 18.87018582 -10.92894759 18.87018582 -15.0625 15.96875 C-17.72374777 11.83431149 -17.50478742 10.09601196 -16.8125 5.25 C-12.15294049 -0.80742736 -7.07661876 0.03612824 0 0 Z " fill="#0081FF" transform="translate(161.8125,314.75)"/>
<path d="M0 0 C1.08023438 -0.01095703 2.16046875 -0.02191406 3.2734375 -0.03320312 C7.93210476 0.00993268 11.09342507 0.04477461 15.1875 2.3828125 C17.73239075 5.44326301 18 7.61592097 18 11.5625 C16.78260036 14.44581495 15.86693065 16.02380066 13.20092773 17.68041992 C9.01393427 19.35846844 4.51497802 18.88944672 0.0625 18.875 C-0.92685547 18.89111328 -1.91621094 18.90722656 -2.93554688 18.92382812 C-12.0753763 18.92997461 -12.0753763 18.92997461 -16 15.5625 C-17.57898053 12.40453893 -17.81928171 8.95579364 -17 5.5625 C-12.75275134 -0.96741093 -7.04965728 -0.15563086 0 0 Z " fill="#0081FF" transform="translate(162,212.4375)"/>
<path d="M0 0 C1.18013672 -0.03222656 2.36027344 -0.06445312 3.57617188 -0.09765625 C11.93549519 -0.10711785 11.93549519 -0.10711785 14.99047852 1.87744141 C17.49675334 4.70147529 18.05994046 6.47654691 18.125 10.25 C16.99275993 13.84652729 15.99064395 15.3179775 13.0625 17.625 C9.33533309 19.48858345 4.8513931 18.80975292 0.75 18.8125 C-0.20068359 18.82474609 -1.15136719 18.83699219 -2.13085938 18.84960938 C-11.20308807 18.86862872 -11.20308807 18.86862872 -14.9375 16.625 C-16.97781755 13.56452368 -17.25343524 12.69004006 -17.3125 9.1875 C-17.34085938 8.42566406 -17.36921875 7.66382813 -17.3984375 6.87890625 C-15.6676944 -1.58413416 -6.68791802 -0.03640674 0 0 Z " fill="#0081FF" transform="translate(161.9375,161.375)"/>
<path d="M0 0 C0.78181641 -0.020625 1.56363281 -0.04125 2.36914062 -0.0625 C7.73893145 -0.09838833 11.42358535 0.73554052 16.1875 3.25 C18.43110341 5.86753731 18.1870752 7.26189426 18.0625 10.75 C17.0828321 14.66867159 16.31848951 15.79747955 13.1875 18.25 C10.41015625 18.76757812 10.41015625 18.76757812 7.25 18.78125 C5.53683594 18.78898437 5.53683594 18.78898437 3.7890625 18.796875 C2.60054687 18.78140625 1.41203125 18.7659375 0.1875 18.75 C-1.00101563 18.76546875 -2.18953125 18.7809375 -3.4140625 18.796875 C-4.55617187 18.79171875 -5.69828125 18.7865625 -6.875 18.78125 C-7.91785156 18.77673828 -8.96070313 18.77222656 -10.03515625 18.76757812 C-13.48258158 18.12512544 -14.66633409 16.96864494 -16.8125 14.25 C-17.54627162 11.18542441 -17.38084762 8.34181106 -16.8125 5.25 C-12.67944302 -0.65436711 -6.55819187 0.04262026 0 0 Z " fill="#0081FF" transform="translate(161.8125,365.75)"/>
</svg>
