<?xml version="1.0" encoding="UTF-8"?>
<svg version="1.1" xmlns="http://www.w3.org/2000/svg" width="512" height="512">
<path d="M0 0 C0.83015625 0.70898438 1.6603125 1.41796875 2.515625 2.1484375 C21.61792437 18.84830045 35.36427762 39.82021246 43 64 C43 64.99 43 65.98 43 67 C44.155 67.0825 45.31 67.165 46.5 67.25 C53.96969971 68.18867023 60.71283534 72.06714228 65.53125 77.83203125 C71.84897494 86.42599532 73.22771257 95.62026653 73.1953125 106.0546875 C73.19407379 106.85134827 73.19283508 107.64800903 73.19155884 108.46881104 C73.17548464 111.77976521 73.14569696 115.0885154 73.05859375 118.3984375 C72.42836797 127.95716288 72.42836797 127.95716288 75.94506836 136.34936523 C78.24206798 137.85650136 80.49423141 138.89332837 83 140 C89.49591998 145.85613797 93.50998091 154.14387019 94.23828125 162.84765625 C94.50032747 174.19839513 91.9314157 183.62692774 84 192 C75.70244285 199.85988381 66.29475855 202.47571129 55.04296875 202.3359375 C51.80113364 201.97804556 49.04806071 201.13903614 46 200 C45.88785156 201.1446875 45.77570313 202.289375 45.66015625 203.46875 C45.08668695 208.00863219 43.90258408 212.17453643 42.4375 216.5 C42.17573975 217.27609619 41.91397949 218.05219238 41.64428711 218.85180664 C29.32391776 254.10045858 3.022968 281.99814493 -30.2644043 298.36547852 C-35.71803757 300.96556864 -41.26595645 303.08865215 -47 305 C-47.33 309.29 -47.66 313.58 -48 318 C-47.22914063 317.43410156 -46.45828125 316.86820312 -45.6640625 316.28515625 C-44.66117188 315.55167969 -43.65828125 314.81820313 -42.625 314.0625 C-41.62726563 313.33160156 -40.62953125 312.60070312 -39.6015625 311.84765625 C-35.3695972 308.84207128 -33.44975851 308.95399963 -28.44082642 309.58334351 C-24.75659468 310.21225307 -21.33688908 311.32629016 -17.82421875 312.58203125 C-16.72555229 312.9652076 -16.72555229 312.9652076 -15.60469055 313.35612488 C-14.07290058 313.89349909 -12.54280699 314.43573204 -11.0144043 314.98266602 C-8.68087151 315.81486389 -6.34017668 316.62400122 -3.99804688 317.43164062 C-2.50212171 317.95957242 -1.00666134 318.48882348 0.48828125 319.01953125 C1.18311111 319.25823441 1.87794098 319.49693756 2.59382629 319.74287415 C6.64950092 321.21681269 9.09839478 322.84739228 12 326 C14.43812648 326.88138845 16.754783 327.5979608 19.25 328.25 C44.62678345 335.60748975 66.18367517 352.95012607 79.14599609 376.04150391 C86.12531282 389.1968287 91.04395249 403.46931602 91.17700195 418.49267578 C91.18983719 419.76063995 91.20267242 421.02860413 91.21589661 422.33499146 C91.22406086 423.70509446 91.23150519 425.07520192 91.23828125 426.4453125 C91.24235678 427.14090145 91.2464323 427.8364904 91.25063133 428.55315781 C91.27140146 432.22765548 91.28574791 435.90211669 91.29516602 439.57666016 C91.30627563 443.36758732 91.34075236 447.15793483 91.38033772 450.94865608 C91.4064635 453.87060645 91.41485366 456.79241682 91.41844749 459.71447372 C91.42331566 461.11233356 91.43493639 462.51018705 91.45348549 463.90793228 C91.47780974 465.86051551 91.47449874 467.8133838 91.4699707 469.76611328 C91.47877007 471.43107346 91.47877007 471.43107346 91.48774719 473.12966919 C90.8864113 476.66845518 89.81255595 477.83714564 87 480 C82.89361524 480.8205259 78.74173603 480.60279893 74.5625 480.5625 C73.43005859 480.58634766 72.29761719 480.61019531 71.13085938 480.63476562 C61.87701545 480.61840644 61.87701545 480.61840644 58.75390625 477.65234375 C57 475 57 475 56.375 472 C57 469 57 469 58.6875 466.125 C62.54271619 463.65184244 64.21198314 463.77231994 68.70703125 463.8671875 C70.47203979 463.89594971 70.47203979 463.89594971 72.27270508 463.92529297 C73.1727124 463.94994629 74.07271973 463.97459961 75 464 C74.95787056 457.17177209 74.88510838 450.34432925 74.79248047 443.51660156 C74.76450707 441.20091865 74.74317694 438.88514444 74.72900391 436.56933594 C74.53975244 407.37414368 68.24996132 384.07263202 47 363 C37.69162042 354.26677232 25.44464583 347.08130386 13 344 C12.27683594 343.72027344 11.55367188 343.44054687 10.80859375 343.15234375 C8.10514907 342.36716938 6.71428443 342.19031515 4 343 C0.58487211 346.33623055 -1.97344536 350.11772946 -4.64355469 354.05908203 C-6.91670015 357.31169298 -9.43275607 360.3620702 -11.9375 363.4375 C-12.95684026 364.7048363 -13.9750692 365.97306724 -14.9921875 367.2421875 C-15.49331055 367.86706055 -15.99443359 368.49193359 -16.51074219 369.13574219 C-18.87759416 372.09857525 -21.22169831 375.07906776 -23.5625 378.0625 C-24.00722656 378.62880127 -24.45195312 379.19510254 -24.91015625 379.77856445 C-27.27789498 382.79614451 -29.63813618 385.81938635 -31.9921875 388.84765625 C-32.73166626 389.79596313 -32.73166626 389.79596313 -33.48608398 390.76342773 C-34.42539621 391.96818059 -35.36255457 393.17461716 -36.29711914 394.38305664 C-42.62340126 402.48714949 -42.62340126 402.48714949 -47.1875 404.1875 C-51.57454068 403.9717439 -52.33238064 403.19995898 -55.5625 400.4375 C-57.79609156 398.48851165 -57.79609156 398.48851165 -60 397 C-63.08578963 397.13654099 -63.08578963 397.13654099 -66 399 C-67.67805924 399.73041737 -69.36656019 400.43711881 -71.0625 401.125 C-72.28646484 401.65480469 -72.28646484 401.65480469 -73.53515625 402.1953125 C-76 403 -76 403 -81 403 C-81 423.13 -81 443.26 -81 464 C-73.18957031 463.94199219 -65.37914062 463.88398438 -57.33203125 463.82421875 C-52.38734906 463.79867449 -47.44274808 463.77460508 -42.49804688 463.75585938 C-34.64753346 463.72595667 -26.79731131 463.69056185 -18.94702148 463.62280273 C-12.61872349 463.56852168 -6.29073777 463.53858723 0.03777504 463.52561378 C2.45356476 463.51636704 4.86933716 463.49831047 7.28499413 463.47134972 C10.66587791 463.43511301 14.0454673 463.43005264 17.42651367 463.43237305 C18.42776779 463.41439667 19.42902191 463.39642029 20.46061707 463.37789917 C25.1345063 463.41266603 27.29272159 463.4680365 31.1217804 466.34797668 C33 469 33 469 33.625 472 C32.74379907 476.22976447 31.4923184 477.4270121 28 480 C24.10653329 480.75198108 20.25719845 480.6698811 16.30223083 480.62818909 C15.10430013 480.63528347 13.90636943 480.64237786 12.6721378 480.64968723 C9.34998621 480.66424743 6.02925939 480.65637022 2.70721209 480.6389643 C-0.87635337 480.62560013 -4.45981048 480.64102384 -8.04336548 480.65278625 C-15.0619611 480.67117388 -22.08027848 480.66264343 -29.09886546 480.64469803 C-34.80191701 480.63067849 -40.50489299 480.62677783 -46.20796013 480.6301403 C-47.01930863 480.63061775 -47.83065713 480.63109519 -48.66659195 480.6315871 C-50.31476238 480.63261342 -51.96293278 480.63366877 -53.61110317 480.63475286 C-68.18764989 480.64332205 -82.76406217 480.62663726 -97.34057617 480.59692383 C-111.49037319 480.56808056 -125.63997657 480.56100509 -139.78979492 480.57641602 C-155.19334042 480.5931694 -170.59679395 480.59722164 -186.00034183 480.57970566 C-187.64217976 480.57786124 -189.28401769 480.57602651 -190.92585564 480.57420158 C-191.73370216 480.57328949 -192.54154868 480.5723774 -193.3738754 480.57143768 C-199.07176624 480.5658273 -204.76961226 480.56914406 -210.46750069 480.57574654 C-217.40884665 480.58347047 -224.35000185 480.57676108 -231.2913093 480.5515715 C-234.83412606 480.53905501 -238.3766455 480.53295564 -241.91947365 480.54411316 C-245.75623835 480.55596844 -249.59248764 480.53693781 -253.42921448 480.5146637 C-254.55420036 480.52290446 -255.67918625 480.53114523 -256.83826262 480.53963572 C-257.86377822 480.52858803 -258.88929382 480.51754034 -259.94588566 480.50615788 C-260.83172087 480.50496639 -261.71755608 480.50377491 -262.63023478 480.50254732 C-265.79751451 479.83087405 -266.98757933 478.48394779 -269 476 C-269.96441832 473.10674505 -270.13174061 471.25625205 -270.14526367 468.24755859 C-270.15164352 467.2815976 -270.15802338 466.3156366 -270.16459656 465.32040405 C-270.16570938 464.27365509 -270.1668222 463.22690613 -270.16796875 462.1484375 C-270.17129715 461.0610025 -270.17462555 459.9735675 -270.17805481 458.85317993 C-270.18312544 456.54144717 -270.18546309 454.22970707 -270.18530273 451.91796875 C-270.18746132 448.43737033 -270.20553724 444.95710362 -270.22460938 441.4765625 C-270.31301882 407.50127085 -263.82430275 379.2619762 -240 354 C-239.09507812 352.98099609 -239.09507812 352.98099609 -238.171875 351.94140625 C-226.20422015 339.01113568 -208.69746774 329.95582161 -191.453125 326.80078125 C-188.89405755 326.19434493 -188.89405755 326.19434493 -187.36376953 324.15209961 C-184.14831146 321.22457814 -180.79807843 320.16031028 -176.7265625 318.765625 C-175.92519867 318.48273621 -175.12383484 318.19984741 -174.29818726 317.90838623 C-172.60732541 317.31466481 -170.91444564 316.72666304 -169.21972656 316.14404297 C-166.63550076 315.25361816 -164.05985006 314.34116687 -161.484375 313.42578125 C-159.83640305 312.85022777 -158.18797941 312.27596563 -156.5390625 311.703125 C-155.7732486 311.43131409 -155.00743469 311.15950317 -154.21841431 310.87945557 C-150.02910332 309.45484971 -146.4855258 308.53026829 -142 309 C-138.01909742 311.27480147 -134.5352229 314.08863996 -131 317 C-131 313.04 -131 309.08 -131 305 C-132.24652344 304.53851563 -133.49304688 304.07703125 -134.77734375 303.6015625 C-151.23790019 297.35790316 -165.79930567 289.7934131 -179 278 C-180.44246094 276.77216797 -180.44246094 276.77216797 -181.9140625 275.51953125 C-203.13707968 257.16755971 -217.96933297 231.38147577 -224 204 C-224 202.68 -224 201.36 -224 200 C-225.29357422 200.48339844 -225.29357422 200.48339844 -226.61328125 200.9765625 C-235.97191798 203.80466264 -245.37605782 202.33892091 -254 198 C-262.2791834 193.14172918 -268.0053413 185.89930041 -271.3046875 176.90234375 C-274.06799847 165.36784907 -271.78597584 155.89588457 -266.25 145.8125 C-262.26318355 140.82897943 -257.75610883 136.77912129 -252 134 C-251.98018066 132.89599854 -251.96036133 131.79199707 -251.93994141 130.65454102 C-251.86333927 126.52248975 -251.77471025 122.39076582 -251.68261719 118.2590332 C-251.64455144 116.47752387 -251.6096613 114.69594352 -251.578125 112.91430664 C-251.53198341 110.3397499 -251.4740754 107.76567271 -251.4140625 105.19140625 C-251.39673569 104.01427818 -251.39673569 104.01427818 -251.37905884 102.81336975 C-251.09978141 92.12969874 -248.71766191 82.63311238 -240.88671875 74.91796875 C-235.10994249 70.17881724 -228.76209285 66.2723038 -221 67 C-220.7215625 65.2675 -220.7215625 65.2675 -220.4375 63.5 C-216.49058563 46.01297661 -204.72361641 23.55699683 -190 13 C-186.9375 12.5 -186.9375 12.5 -184 13 C-181.37683333 14.91420271 -180.25163664 16.36252052 -179.0625 19.375 C-178.93179805 24.86448207 -182.26467318 28.37077823 -185.625 32.375 C-194.49834021 43.25462853 -200.20251887 55.90569857 -205 69 C-203.91912109 69.12181641 -203.91912109 69.12181641 -202.81640625 69.24609375 C-196.90973463 70.82721389 -192.01571202 76.16725271 -188.53515625 81.05859375 C-183.58626335 90.34010233 -183.68200036 100.43004494 -183.73925781 110.65600586 C-183.74996067 112.92914609 -183.73932592 115.2014934 -183.7265625 117.47460938 C-183.71186772 131.43197544 -184.9179796 142.71663738 -194.75 153.3125 C-199.29073924 157.62921795 -204.59810047 161 -211 161 C-210.19137314 194.40835167 -204.09018594 224.71306026 -182 251 C-181.24332031 251.91910156 -180.48664063 252.83820313 -179.70703125 253.78515625 C-169.13323415 266.04938094 -156.36122632 274.74068015 -142 282 C-140.88238281 282.56589844 -139.76476562 283.13179688 -138.61328125 283.71484375 C-110.83174863 296.63572223 -77.77590543 297.48216185 -48.97265625 287.50390625 C-26.90198202 279.37376249 -7.10002772 265.97651953 7 247 C7.59039062 246.23558594 8.18078125 245.47117187 8.7890625 244.68359375 C24.93210296 222.901546 31.42650537 197.69855382 32.5625 170.9375 C32.60568359 169.97650391 32.64886719 169.01550781 32.69335938 168.02539062 C32.79821132 165.68369723 32.90037788 163.34192071 33 161 C32.09121094 160.87882813 31.18242187 160.75765625 30.24609375 160.6328125 C22.78199301 159.17771705 16.71671185 153.78487306 12 148 C7.08892099 140.38094285 5.68851314 132.16783845 5.69921875 123.2578125 C5.69493362 122.44939911 5.6906485 121.64098572 5.68623352 120.80807495 C5.68052697 119.10887584 5.67996261 117.40965231 5.68432617 115.71044922 C5.68748335 113.13856487 5.66399108 110.56783619 5.63867188 107.99609375 C5.59203902 95.82418045 6.03047321 85.047983 15.08203125 75.89453125 C21.75966195 69.6377131 21.75966195 69.6377131 27 69 C12.57091696 35.71056731 -7.3510264 8.24838867 -41.81640625 -6.078125 C-51.01443883 -9.68420326 -60.24036379 -12.38990773 -70 -14 C-71.04929687 -14.18304687 -72.09859375 -14.36609375 -73.1796875 -14.5546875 C-98.60320993 -17.51816557 -124.22015789 -13.28228603 -146.52368164 -0.5402832 C-151.35454633 2.10582019 -154.63526085 2.47069064 -160 2 C-162.5 0.4375 -162.5 0.4375 -164 -2 C-164.5 -5.5 -164.5 -5.5 -164 -9 C-152.17550506 -23.30200817 -124.6418716 -29.52860147 -107.04296875 -31.6015625 C-68.43333524 -35.11792256 -29.67250382 -25.78918956 0 0 Z M-229.8125 87.25 C-234.33279182 92.93265257 -235.44934834 97.97487687 -235.29296875 105.12109375 C-235.28872391 105.86585464 -235.28447906 106.61061554 -235.28010559 107.37794495 C-235.26345724 109.73151473 -235.22583375 112.08419379 -235.1875 114.4375 C-235.17243515 116.04360733 -235.15874991 117.64972823 -235.14648438 119.25585938 C-235.11359952 123.17091047 -235.06191626 127.08530479 -235 131 C-234.18160645 131.19118408 -233.36321289 131.38236816 -232.52001953 131.5793457 C-230.90522705 131.9673938 -230.90522705 131.9673938 -229.2578125 132.36328125 C-228.19191895 132.61634033 -227.12602539 132.86939941 -226.02783203 133.13012695 C-222.19872087 134.23020138 -219.35422259 135.88538141 -216 138 C-215.34 138 -214.68 138 -214 138 C-213.34 140.31 -212.68 142.62 -212 145 C-206.55228576 142.19831839 -202.90695124 138.61070567 -200.87426758 132.75952148 C-199.52258547 126.94702421 -199.66623033 121.17158617 -199.68432617 115.23950195 C-199.68748722 113.07126603 -199.66397624 110.9043961 -199.63867188 108.73632812 C-199.36159485 97.38555233 -199.36159485 97.38555233 -204.31054688 87.49682617 C-212.30391249 80.1959937 -221.72175559 80.77740448 -229.8125 87.25 Z M28.94140625 85.265625 C24.86973972 88.48232621 23.40026932 90.9300847 22 96 C21.80433622 98.61824232 21.69575187 101.12647425 21.69921875 103.7421875 C21.69493362 104.46938995 21.6906485 105.19659241 21.68623352 105.9458313 C21.6805176 107.47706059 21.67996966 109.00831702 21.68432617 110.53955078 C21.68748163 112.86148235 21.66401016 115.18213221 21.63867188 117.50390625 C21.63639787 118.99999841 21.63569585 120.49609396 21.63671875 121.9921875 C21.627509 122.67578339 21.61829926 123.35937927 21.60881042 124.06369019 C21.66435519 129.95574624 23.03266884 135.25393359 26.5 140.09375 C29.6980852 143.29221021 29.6980852 143.29221021 34 144 C34.21527344 143.24074219 34.43054688 142.48148438 34.65234375 141.69921875 C36.39712418 138.20460056 38.06689319 137.47771244 41.5625 135.8125 C42.55378906 135.32394531 43.54507812 134.83539063 44.56640625 134.33203125 C48.64798136 132.74862156 52.71201935 131.83332341 57 131 C57.07468636 126.44681299 57.12885256 121.89399002 57.16479492 117.34033203 C57.1797933 115.79437032 57.20019887 114.24845052 57.22631836 112.70263672 C57.75749082 99.60209848 57.75749082 99.60209848 52.421875 87.9765625 C45.06103274 82.02597507 37.36639314 80.08593666 28.94140625 85.265625 Z M-252.25 154.4375 C-255.91916688 159.81020865 -256.85822356 164.57405108 -256 171 C-253.84373012 177.84860719 -249.87462652 181.80088765 -243.6875 185.3125 C-237.97667847 186.77340783 -232.3105957 186.74095262 -227 184 C-227 181.03 -227 178.06 -227 175 C-227.75925781 174.98582031 -228.51851562 174.97164062 -229.30078125 174.95703125 C-237.41620863 174.56757494 -237.41620863 174.56757494 -240.25 171.8125 C-241.17525979 168.3427758 -241.18322364 166.40176797 -240 163 C-236.11168887 159.58299931 -231.97150479 159.42131396 -227 159 C-227.26482538 155.11589437 -227.53394007 153.4537952 -230.375 150.6875 C-238.70046597 145.33541474 -245.89368308 147.55149 -252.25 154.4375 Z M50.125 152.9375 C48.68076525 155.19370234 48.68076525 155.19370234 49 159 C49.75925781 159.08636719 50.51851563 159.17273438 51.30078125 159.26171875 C59.40785498 160.40785498 59.40785498 160.40785498 62.25 163.25 C63.1608354 166.5897298 62.95730719 168.68624434 62 172 C59.41073669 174.58926331 57.97294721 174.37398043 54.375 174.625 C53.37210937 174.69976562 52.36921875 174.77453125 51.3359375 174.8515625 C50.17964844 174.92503906 50.17964844 174.92503906 49 175 C49 177.97 49 180.94 49 184 C54.17155875 186.66919161 59.58553591 186.98088241 65.1484375 185.3828125 C70.68405233 182.986167 73.95536088 179.13058565 77 174 C78.84152373 168.47542882 78.8169855 163.08994339 76.375 157.75 C73.90044162 153.32230805 70.56394501 150.28197251 66 148 C59.5322473 147.56881649 54.87885894 148.02517909 50.125 152.9375 Z M-114 309 C-115.89672121 320.91931821 -115.89672121 320.91931821 -112.67285156 332.05957031 C-109.21337959 335.65049027 -105.13187314 338.26360701 -100.87646484 340.8203125 C-98.32165705 342.4264576 -96.1334743 344.38110079 -93.875 346.375 C-92.0526798 348.1361255 -92.0526798 348.1361255 -90 349 C-84.85936685 347.99694963 -80.91088482 343.90090721 -77 340.625 C-75.60421857 339.47129137 -74.20838642 338.3176441 -72.8125 337.1640625 C-72.15854248 336.60654297 -71.50458496 336.04902344 -70.83081055 335.47460938 C-69 334 -69 334 -66.01953125 332.2578125 C-62.63902202 328.47844241 -63.47702978 324.11348105 -63.6875 319.25 C-63.72133789 317.77466797 -63.72133789 317.77466797 -63.75585938 316.26953125 C-63.81471195 313.8448053 -63.89686569 311.42318017 -64 309 C-65.41925781 309.10828125 -65.41925781 309.10828125 -66.8671875 309.21875 C-82.64374537 310.35430655 -98.23297768 310.20293358 -114 309 Z M-151.47265625 327.53125 C-152.37177734 327.84707031 -153.27089844 328.16289062 -154.19726562 328.48828125 C-155.61555664 328.98908203 -155.61555664 328.98908203 -157.0625 329.5 C-158.01189453 329.83386719 -158.96128906 330.16773438 -159.93945312 330.51171875 C-162.29346005 331.33976139 -164.64694715 332.16925083 -167 333 C-165.55558298 337.38113229 -163.32976432 340.22665624 -160.3125 343.6875 C-157.05953763 347.50650387 -153.86019499 351.33979777 -150.875 355.375 C-150.31554687 356.12523437 -149.75609375 356.87546875 -149.1796875 357.6484375 C-147.68619515 360.62553153 -147.67634 362.70945665 -148 366 C-150.09110663 369.05623277 -151.29306849 369.86463014 -154.9375 370.5625 C-160.71719772 369.50092287 -164.18267449 363.7260994 -167.8125 359.375 C-168.24626953 358.86300049 -168.68003906 358.35100098 -169.12695312 357.82348633 C-172.08342559 354.28255703 -174.53430608 350.59359929 -177 346.6875 C-179.47329271 343.13637577 -179.47329271 343.13637577 -183.2265625 341.36328125 C-186.02842062 341.52299629 -188.32638049 342.14088681 -191 343 C-192.07507813 343.2990625 -193.15015625 343.598125 -194.2578125 343.90625 C-207.81337065 348.15183868 -218.98793965 356.02199428 -229 366 C-229.75796875 366.73476563 -230.5159375 367.46953125 -231.296875 368.2265625 C-256.76000489 394.47992746 -254 429.05744899 -254 464 C-202.19 464 -150.38 464 -97 464 C-97 443.87 -97 423.74 -97 403 C-101.29 401.68 -105.58 400.36 -110 399 C-111.98 398.01 -113.96 397.02 -116 396 C-116.61746094 396.58910156 -117.23492187 397.17820312 -117.87109375 397.78515625 C-124.70613308 403.85034336 -124.70613308 403.85034336 -128.66796875 404.30859375 C-130.86272982 404.03294013 -132.88836288 403.65287331 -135 403 C-136.35155126 395.7507705 -136.35155126 395.7507705 -134.84765625 392.5390625 C-132.73440867 389.63502249 -130.43838404 387.44605361 -127.75 385.0625 C-126.68024918 384.10369002 -125.61127755 383.14401017 -124.54296875 382.18359375 C-123.68904541 381.41958252 -123.68904541 381.41958252 -122.81787109 380.64013672 C-119.53013912 377.67384832 -116.2981016 374.6479011 -113.0625 371.625 C-112.43633789 371.04242432 -111.81017578 370.45984863 -111.16503906 369.85961914 C-107.70929124 366.6355234 -104.31985608 363.36395284 -101 360 C-112.23749568 351.20304982 -123.53212489 342.49495314 -135 334 C-135.57492188 333.57364258 -136.14984375 333.14728516 -136.7421875 332.70800781 C-143.55235471 326.77384184 -143.55235471 326.77384184 -151.47265625 327.53125 Z M-39.0625 330.5625 C-41.02790303 332.32383215 -42.93419461 334.12758561 -44.8203125 335.97363281 C-48.95028909 339.81310478 -53.54649137 343.07075039 -58.0625 346.4375 C-59.80456854 347.76798355 -61.54550826 349.09994682 -63.28515625 350.43359375 C-67.13828811 353.36706081 -71.04065552 356.21180491 -75 359 C-73.62461041 362.11874498 -72.06966032 364.13889655 -69.5859375 366.4609375 C-68.56693359 367.41613281 -68.56693359 367.41613281 -67.52734375 368.390625 C-66.81707031 369.04546875 -66.10679687 369.7003125 -65.375 370.375 C-64.34439453 371.34566406 -64.34439453 371.34566406 -63.29296875 372.3359375 C-58.75327869 376.5604896 -54.03777631 380.38517158 -49 384 C-41.36454824 374.65294459 -33.79683883 365.26153516 -26.36914062 355.74853516 C-24.93371074 353.91534172 -23.49118209 352.08792487 -22.046875 350.26171875 C-21.31331787 349.33286865 -21.31331787 349.33286865 -20.56494141 348.38525391 C-19.64129023 347.21604745 -18.71657893 346.04767725 -17.79052734 344.88037109 C-14.73379583 341.00447742 -11.84552409 337.03370888 -9 333 C-24.29469566 325.40990318 -24.29469566 325.40990318 -39.0625 330.5625 Z M-89 371 C-90.96195402 372.76695859 -92.91959627 374.53831789 -94.875 376.3125 C-95.43058594 376.81201172 -95.98617187 377.31152344 -96.55859375 377.82617188 C-99.06788023 380.1087156 -101.10906778 382.16360168 -103 385 C-94.71254103 388.82498106 -86.48451697 389.38858041 -77.75 386.5 C-76.49275687 386.01850263 -75.23937115 385.52579382 -74 385 C-75.41567599 381.69675603 -77.08994484 379.76442573 -79.8125 377.4375 C-80.47894531 376.85871094 -81.14539063 376.27992188 -81.83203125 375.68359375 C-84.12101166 373.90602518 -86.48864291 372.44194849 -89 371 Z " fill="#0081FF" transform="translate(345,32)"/>
<path d="M0 0 C8.68661224 6.39563758 14.09842882 13.18221112 18.1875 23.25 C18.1875 23.91 18.1875 24.57 18.1875 25.25 C19.00541016 25.00636719 19.00541016 25.00636719 19.83984375 24.7578125 C22.5334154 24.17517637 24.99528561 24.11750418 27.75 24.125 C28.70003906 24.12242187 29.65007812 24.11984375 30.62890625 24.1171875 C33.1875 24.25 33.1875 24.25 36.1875 25.25 C36.33445312 24.693125 36.48140625 24.13625 36.6328125 23.5625 C38.43355585 17.43583297 41.02586132 13.06251108 45.1875 8.25 C45.94160156 7.33734375 45.94160156 7.33734375 46.7109375 6.40625 C53.89358959 -1.58226061 64.52765063 -6.19347197 75.14453125 -6.96484375 C89.11556819 -7.37916869 100.28675328 -3.96265681 110.69921875 5.54296875 C120.08053384 15.29643518 123.6358251 25.79761964 124.1875 39.25 C123.35103159 53.70895402 116.90951803 64.21438357 106.375 73.8125 C96.17891167 82.12623356 84.18226449 83.18534474 71.515625 82.48828125 C60.07895522 81.31774961 50.665448 74.63987176 43.4375 66.0625 C38.81916323 59.79399185 35.99941138 52.55260262 34 45.0625 C33.5978125 43.6703125 33.5978125 43.6703125 33.1875 42.25 C29.68417899 40.4983395 25.74631428 40.76554218 22.05078125 41.9140625 C19.36372323 43.8406324 19.3432271 45.60907364 18.75 48.8125 C16.34877632 59.51582681 10.66447549 68.45494879 1.765625 75.04296875 C-6.46935455 80.22179906 -14.39091935 82.81558001 -24.125 82.6875 C-24.95386719 82.67847656 -25.78273437 82.66945313 -26.63671875 82.66015625 C-38.59828436 82.32478525 -47.95032628 78.36344937 -56.8125 70.25 C-66.0340633 60.02103903 -69.91336726 48.95113681 -69.8125 35.25 C-69.2396895 24.53241403 -64.36693203 13.56522404 -57 5.75 C-41.07453564 -8.55229203 -18.52698091 -11.61108735 0 0 Z M-47.8125 20.25 C-52.49137955 27.1752073 -54.81073311 34.48826852 -53.3671875 42.8203125 C-50.93695581 51.9546316 -47.11611213 57.96708954 -39.09375 63.0234375 C-32.06424778 66.80299862 -25.71499143 67.17334374 -17.8125 66.25 C-9.25232687 63.61378743 -3.22610416 59.0447863 1.1875 51.25 C4.62800472 43.97296125 5.27793536 37.31500189 2.9375 29.625 C-0.03810438 21.61692184 -5.29257626 15.07460963 -12.98046875 11.140625 C-25.83417493 6.31764144 -38.87151705 9.85859093 -47.8125 20.25 Z M55.1875 21.25 C50.83831351 27.77377974 49.35353269 34.53286589 50.1875 42.25 C52.17980428 50.36721688 55.36557503 57.0794192 62.46875 61.75 C70.38257074 66.27218328 77.07146288 67.09913836 86.1875 66.25 C93.88985768 63.93514048 100.36979704 59.01775958 104.46875 52.08203125 C108.46973856 43.77997998 109.14698462 36.0466248 106.1875 27.25 C102.29689782 19.32847884 96.38071462 13.88857733 88.3125 10.375 C75.04854993 6.01424929 64.08195643 11.3637157 55.1875 21.25 Z " fill="#0081FF" transform="translate(228.8125,149.75)"/>
<path d="M0 0 C0.90290771 0.19682373 1.80581543 0.39364746 2.73608398 0.59643555 C8.9335412 2.09274248 8.9335412 2.09274248 11.5703125 4.5703125 C12.99647143 7.72224358 12.86501263 10.21821548 12.5 13.625 C11.26171875 15.82055664 11.26171875 15.82055664 9.5 17.625 C3.01258657 19.02291856 -4.14459548 17.12243118 -10.5 15.6875 C-31.80508993 10.97707777 -53.74164115 11.44752279 -75 16.25 C-80.37005392 17.46119743 -85.00624883 18.16536897 -90.5 17.625 C-92.69612956 16.03418178 -93.40265793 15.15179237 -93.8984375 12.46875 C-93.89070312 11.6953125 -93.88296875 10.921875 -93.875 10.125 C-93.88273438 9.3515625 -93.89046875 8.578125 -93.8984375 7.78125 C-93.39802458 5.073133 -92.59691604 4.37066346 -90.5 2.625 C-88.53320312 1.85717773 -88.53320312 1.85717773 -86.28125 1.30859375 C-85.44134521 1.10258545 -84.60144043 0.89657715 -83.73608398 0.68432617 C-82.83317627 0.47912354 -81.93026855 0.2739209 -81 0.0625 C-80.06164307 -0.15365967 -79.12328613 -0.36981934 -78.15649414 -0.5925293 C-52.36741783 -6.29523614 -25.71691346 -5.80049211 0 0 Z " fill="#0081FF" transform="translate(296.5,95.375)"/>
<path d="M0 0 C2.1171875 2.14453125 2.1171875 2.14453125 2.74609375 4.14453125 C2.63217349 7.57554131 2.41369976 9.65034416 0.6171875 12.64453125 C-4.10352341 15.47695779 -8.66447979 14.43928916 -13.7578125 13.20703125 C-27.24555061 9.97462505 -41.12062052 10.94530071 -54.578125 13.6953125 C-58.91882072 14.54138031 -62.45851112 15.0210244 -66.3203125 12.64453125 C-68.19638748 9.64281128 -68.39643908 7.61648373 -68.51171875 4.14453125 C-67.5088017 0.95513045 -65.65619389 -0.08482875 -62.8828125 -1.85546875 C-46.0274184 -6.949456 -15.76567662 -10.14728509 0 0 Z " fill="#0081FF" transform="translate(288.8828125,62.85546875)"/>
</svg>
